  0
SECTION
  2
BLOCKS
  0
ENDSEC
  0
SECTION
  2
ENTITIES
  0
LINE
  8
0
 10
68
 20
-2.71068
 11
68
 21
2.71068
  0
LINE
  8
0
 10
68
 20
2.71068
 11
2.71068
 21
68
  0
LINE
  8
0
 10
2.71068
 20
68
 11
-2.71068
 21
68
  0
LINE
  8
0
 10
-2.71068
 20
68
 11
-68
 21
2.71068
  0
LINE
  8
0
 10
-68
 20
2.71068
 11
-68
 21
-2.71068
  0
LINE
  8
0
 10
-68
 20
-2.71068
 11
-2.71068
 21
-68
  0
LINE
  8
0
 10
-2.71068
 20
-68
 11
2.71068
 21
-68
  0
LINE
  8
0
 10
2.71068
 20
-68
 11
68
 21
-2.71068
  0
LINE
  8
0
 10
-3.9921
 20
57.7512
 11
-3.96844
 21
58.0013
  0
LINE
  8
0
 10
-3.96844
 20
58.0013
 11
-3.92914
 21
58.2495
  0
LINE
  8
0
 10
-3.92914
 20
58.2495
 11
-3.87433
 21
58.4948
  0
LINE
  8
0
 10
-3.87433
 20
58.4948
 11
-3.80421
 21
58.7361
  0
LINE
  8
0
 10
-3.80421
 20
58.7361
 11
-3.7191
 21
58.9725
  0
LINE
  8
0
 10
-3.7191
 20
58.9725
 11
-3.61929
 21
59.2031
  0
LINE
  8
0
 10
-3.61929
 20
59.2031
 11
-3.50522
 21
59.427
  0
LINE
  8
0
 10
-3.50522
 20
59.427
 11
-3.3773
 21
59.6433
  0
LINE
  8
0
 10
-3.3773
 20
59.6433
 11
-3.23605
 21
59.8511
  0
LINE
  8
0
 10
-3.23605
 20
59.8511
 11
-3.08205
 21
60.0497
  0
LINE
  8
0
 10
-3.08205
 20
60.0497
 11
-2.91586
 21
60.2382
  0
LINE
  8
0
 10
-2.91586
 20
60.2382
 11
-2.73817
 21
60.4159
  0
LINE
  8
0
 10
-2.73817
 20
60.4159
 11
-2.54968
 21
60.582
  0
LINE
  8
0
 10
-2.54968
 20
60.582
 11
-2.35114
 21
60.7361
  0
LINE
  8
0
 10
-2.35114
 20
60.7361
 11
-2.1433
 21
60.8773
  0
LINE
  8
0
 10
-2.1433
 20
60.8773
 11
-1.927
 21
61.0052
  0
LINE
  8
0
 10
-1.927
 20
61.0052
 11
-1.70311
 21
61.1193
  0
LINE
  8
0
 10
-1.70311
 20
61.1193
 11
-1.47249
 21
61.2191
  0
LINE
  8
0
 10
-1.47249
 20
61.2191
 11
-1.23605
 21
61.3042
  0
LINE
  8
0
 10
-1.23605
 20
61.3042
 11
-0.994751
 21
61.3743
  0
LINE
  8
0
 10
-0.994751
 20
61.3743
 11
-0.749512
 21
61.4291
  0
LINE
  8
0
 10
-0.749512
 20
61.4291
 11
-0.501328
 21
61.4685
  0
LINE
  8
0
 10
-0.501328
 20
61.4685
 11
-0.25116
 21
61.4921
  0
LINE
  8
0
 10
-0.25116
 20
61.4921
 11
-0.0124969
 21
61.4996
  0
LINE
  8
0
 10
-0.0124969
 20
61.4996
 11
-0.0124969
 21
57.5125
  0
LINE
  8
0
 10
-0.0124969
 20
57.5125
 11
-3.9996
 21
57.5125
  0
LINE
  8
0
 10
-3.9996
 20
57.5125
 11
-3.9921
 21
57.7512
  0
LINE
  8
0
 10
0.0124969
 20
57.5125
 11
0.0124969
 21
61.4996
  0
LINE
  8
0
 10
0.0124969
 20
61.4996
 11
0.25116
 21
61.4921
  0
LINE
  8
0
 10
0.25116
 20
61.4921
 11
0.501328
 21
61.4685
  0
LINE
  8
0
 10
0.501328
 20
61.4685
 11
0.749512
 21
61.4291
  0
LINE
  8
0
 10
0.749512
 20
61.4291
 11
0.994751
 21
61.3743
  0
LINE
  8
0
 10
0.994751
 20
61.3743
 11
1.23605
 21
61.3042
  0
LINE
  8
0
 10
1.23605
 20
61.3042
 11
1.47249
 21
61.2191
  0
LINE
  8
0
 10
1.47249
 20
61.2191
 11
1.70311
 21
61.1193
  0
LINE
  8
0
 10
1.70311
 20
61.1193
 11
1.927
 21
61.0052
  0
LINE
  8
0
 10
1.927
 20
61.0052
 11
2.1433
 21
60.8773
  0
LINE
  8
0
 10
2.1433
 20
60.8773
 11
2.35114
 21
60.7361
  0
LINE
  8
0
 10
2.35114
 20
60.7361
 11
2.54968
 21
60.582
  0
LINE
  8
0
 10
2.54968
 20
60.582
 11
2.73817
 21
60.4159
  0
LINE
  8
0
 10
2.73817
 20
60.4159
 11
2.91586
 21
60.2382
  0
LINE
  8
0
 10
2.91586
 20
60.2382
 11
3.08205
 21
60.0497
  0
LINE
  8
0
 10
3.08205
 20
60.0497
 11
3.23605
 21
59.8511
  0
LINE
  8
0
 10
3.23605
 20
59.8511
 11
3.3773
 21
59.6433
  0
LINE
  8
0
 10
3.3773
 20
59.6433
 11
3.50522
 21
59.427
  0
LINE
  8
0
 10
3.50522
 20
59.427
 11
3.61929
 21
59.2031
  0
LINE
  8
0
 10
3.61929
 20
59.2031
 11
3.7191
 21
58.9725
  0
LINE
  8
0
 10
3.7191
 20
58.9725
 11
3.80421
 21
58.7361
  0
LINE
  8
0
 10
3.80421
 20
58.7361
 11
3.87433
 21
58.4948
  0
LINE
  8
0
 10
3.87433
 20
58.4948
 11
3.92914
 21
58.2495
  0
LINE
  8
0
 10
3.92914
 20
58.2495
 11
3.96844
 21
58.0013
  0
LINE
  8
0
 10
3.96844
 20
58.0013
 11
3.9921
 21
57.7512
  0
LINE
  8
0
 10
3.9921
 20
57.7512
 11
3.9996
 21
57.5125
  0
LINE
  8
0
 10
3.9996
 20
57.5125
 11
0.0124969
 21
57.5125
  0
LINE
  8
0
 10
0.0124969
 20
57.4875
 11
-0.0124969
 21
57.4875
  0
LINE
  8
0
 10
-0.0124969
 20
57.4875
 11
-0.0124969
 21
53.5004
  0
LINE
  8
0
 10
-0.0124969
 20
53.5004
 11
-0.25116
 21
53.5079
  0
LINE
  8
0
 10
-0.25116
 20
53.5079
 11
-0.501328
 21
53.5315
  0
LINE
  8
0
 10
-0.501328
 20
53.5315
 11
-0.749512
 21
53.5708
  0
LINE
  8
0
 10
-0.749512
 20
53.5708
 11
-0.994751
 21
53.6257
  0
LINE
  8
0
 10
-0.994751
 20
53.6257
 11
-1.23605
 21
53.6958
  0
LINE
  8
0
 10
-1.23605
 20
53.6958
 11
-1.47249
 21
53.7809
  0
LINE
  8
0
 10
-1.47249
 20
53.7809
 11
-1.70311
 21
53.8807
  0
LINE
  8
0
 10
-1.70311
 20
53.8807
 11
-1.927
 21
53.9948
  0
LINE
  8
0
 10
-1.927
 20
53.9948
 11
-2.1433
 21
54.1227
  0
LINE
  8
0
 10
-2.1433
 20
54.1227
 11
-2.35114
 21
54.2639
  0
LINE
  8
0
 10
-2.35114
 20
54.2639
 11
-2.54968
 21
54.4179
  0
LINE
  8
0
 10
-2.54968
 20
54.4179
 11
-2.73817
 21
54.5841
  0
LINE
  8
0
 10
-2.73817
 20
54.5841
 11
-2.91586
 21
54.7618
  0
LINE
  8
0
 10
-2.91586
 20
54.7618
 11
-3.08205
 21
54.9503
  0
LINE
  8
0
 10
-3.08205
 20
54.9503
 11
-3.23605
 21
55.1488
  0
LINE
  8
0
 10
-3.23605
 20
55.1488
 11
-3.3773
 21
55.3567
  0
LINE
  8
0
 10
-3.3773
 20
55.3567
 11
-3.50522
 21
55.573
  0
LINE
  8
0
 10
-3.50522
 20
55.573
 11
-3.61929
 21
55.7969
  0
LINE
  8
0
 10
-3.61929
 20
55.7969
 11
-3.7191
 21
56.0275
  0
LINE
  8
0
 10
-3.7191
 20
56.0275
 11
-3.80421
 21
56.2639
  0
LINE
  8
0
 10
-3.80421
 20
56.2639
 11
-3.87433
 21
56.5052
  0
LINE
  8
0
 10
-3.87433
 20
56.5052
 11
-3.92914
 21
56.7505
  0
LINE
  8
0
 10
-3.92914
 20
56.7505
 11
-3.96844
 21
56.9987
  0
LINE
  8
0
 10
-3.96844
 20
56.9987
 11
-3.9921
 21
57.2488
  0
LINE
  8
0
 10
-3.9921
 20
57.2488
 11
-3.9996
 21
57.4875
  0
LINE
  8
0
 10
-3.9996
 20
57.4875
 11
3.9996
 21
57.4875
  0
LINE
  8
0
 10
3.9996
 20
57.4875
 11
3.9921
 21
57.2488
  0
LINE
  8
0
 10
3.9921
 20
57.2488
 11
3.96844
 21
56.9987
  0
LINE
  8
0
 10
3.96844
 20
56.9987
 11
3.92914
 21
56.7505
  0
LINE
  8
0
 10
3.92914
 20
56.7505
 11
3.87433
 21
56.5052
  0
LINE
  8
0
 10
3.87433
 20
56.5052
 11
3.80421
 21
56.2639
  0
LINE
  8
0
 10
3.80421
 20
56.2639
 11
3.7191
 21
56.0275
  0
LINE
  8
0
 10
3.7191
 20
56.0275
 11
3.61929
 21
55.7969
  0
LINE
  8
0
 10
3.61929
 20
55.7969
 11
3.50522
 21
55.573
  0
LINE
  8
0
 10
3.50522
 20
55.573
 11
3.3773
 21
55.3567
  0
LINE
  8
0
 10
3.3773
 20
55.3567
 11
3.23605
 21
55.1488
  0
LINE
  8
0
 10
3.23605
 20
55.1488
 11
3.08205
 21
54.9503
  0
LINE
  8
0
 10
3.08205
 20
54.9503
 11
2.91586
 21
54.7618
  0
LINE
  8
0
 10
2.91586
 20
54.7618
 11
2.73817
 21
54.5841
  0
LINE
  8
0
 10
2.73817
 20
54.5841
 11
2.54968
 21
54.4179
  0
LINE
  8
0
 10
2.54968
 20
54.4179
 11
2.35114
 21
54.2639
  0
LINE
  8
0
 10
2.35114
 20
54.2639
 11
2.1433
 21
54.1227
  0
LINE
  8
0
 10
2.1433
 20
54.1227
 11
1.927
 21
53.9948
  0
LINE
  8
0
 10
1.927
 20
53.9948
 11
1.70311
 21
53.8807
  0
LINE
  8
0
 10
1.70311
 20
53.8807
 11
1.47249
 21
53.7809
  0
LINE
  8
0
 10
1.47249
 20
53.7809
 11
1.23605
 21
53.6958
  0
LINE
  8
0
 10
1.23605
 20
53.6958
 11
0.994751
 21
53.6257
  0
LINE
  8
0
 10
0.994751
 20
53.6257
 11
0.749512
 21
53.5708
  0
LINE
  8
0
 10
0.749512
 20
53.5708
 11
0.501328
 21
53.5315
  0
LINE
  8
0
 10
0.501328
 20
53.5315
 11
0.25116
 21
53.5079
  0
LINE
  8
0
 10
0.25116
 20
53.5079
 11
0.0124969
 21
53.5004
  0
LINE
  8
0
 10
0.0124969
 20
53.5004
 11
0.0124969
 21
57.4875
  0
LINE
  8
0
 10
-18.739
 20
32.4819
 11
-18.4732
 21
32.6244
  0
LINE
  8
0
 10
-18.4732
 20
32.6244
 11
-18.1876
 21
32.7551
  0
LINE
  8
0
 10
-18.1876
 20
32.7551
 11
-17.8943
 21
32.8677
  0
LINE
  8
0
 10
-17.8943
 20
32.8677
 11
-17.5946
 21
32.9616
  0
LINE
  8
0
 10
-17.5946
 20
32.9616
 11
-17.2896
 21
33.0366
  0
LINE
  8
0
 10
-17.2896
 20
33.0366
 11
-16.9804
 21
33.0922
  0
LINE
  8
0
 10
-16.9804
 20
33.0922
 11
-16.6684
 21
33.1283
  0
LINE
  8
0
 10
-16.6684
 20
33.1283
 11
-16.3547
 21
33.1447
  0
LINE
  8
0
 10
-16.3547
 20
33.1447
 11
-16.0406
 21
33.1414
  0
LINE
  8
0
 10
-16.0406
 20
33.1414
 11
-15.7274
 21
33.1184
  0
LINE
  8
0
 10
-15.7274
 20
33.1184
 11
-15.4162
 21
33.0758
  0
LINE
  8
0
 10
-15.4162
 20
33.0758
 11
-15.1082
 21
33.0137
  0
LINE
  8
0
 10
-15.1082
 20
33.0137
 11
-14.8048
 21
32.9324
  0
LINE
  8
0
 10
-14.8048
 20
32.9324
 11
-14.5071
 21
32.8322
  0
LINE
  8
0
 10
-14.5071
 20
32.8322
 11
-14.2163
 21
32.7135
  0
LINE
  8
0
 10
-14.2163
 20
32.7135
 11
-13.9335
 21
32.5768
  0
LINE
  8
0
 10
-13.9335
 20
32.5768
 11
-13.6599
 21
32.4226
  0
LINE
  8
0
 10
-13.6599
 20
32.4226
 11
-13.3964
 21
32.2516
  0
LINE
  8
0
 10
-13.3964
 20
32.2516
 11
-13.1443
 21
32.0643
  0
LINE
  8
0
 10
-13.1443
 20
32.0643
 11
-12.9043
 21
31.8615
  0
LINE
  8
0
 10
-12.9043
 20
31.8615
 11
-12.6776
 21
31.6441
  0
LINE
  8
0
 10
-12.6776
 20
31.6441
 11
-12.465
 21
31.4129
  0
LINE
  8
0
 10
-12.465
 20
31.4129
 11
-12.2673
 21
31.1688
  0
LINE
  8
0
 10
-12.2673
 20
31.1688
 11
-12.0854
 21
30.9128
  0
LINE
  8
0
 10
-12.0854
 20
30.9128
 11
-11.9265
 21
30.6564
  0
LINE
  8
0
 10
-11.9265
 20
30.6564
 11
-16.2454
 21
28.1629
  0
LINE
  8
0
 10
-16.2454
 20
28.1629
 11
-18.739
 21
32.4819
  0
LINE
  8
0
 10
-20.7285
 20
25.9226
 11
-20.8593
 21
26.2082
  0
LINE
  8
0
 10
-20.8593
 20
26.2082
 11
-20.9719
 21
26.5015
  0
LINE
  8
0
 10
-20.9719
 20
26.5015
 11
-21.0658
 21
26.8012
  0
LINE
  8
0
 10
-21.0658
 20
26.8012
 11
-21.1407
 21
27.1063
  0
LINE
  8
0
 10
-21.1407
 20
27.1063
 11
-21.1964
 21
27.4154
  0
LINE
  8
0
 10
-21.1964
 20
27.4154
 11
-21.2325
 21
27.7274
  0
LINE
  8
0
 10
-21.2325
 20
27.7274
 11
-21.2489
 21
28.0411
  0
LINE
  8
0
 10
-21.2489
 20
28.0411
 11
-21.2456
 21
28.3552
  0
LINE
  8
0
 10
-21.2456
 20
28.3552
 11
-21.2226
 21
28.6685
  0
LINE
  8
0
 10
-21.2226
 20
28.6685
 11
-21.18
 21
28.9797
  0
LINE
  8
0
 10
-21.18
 20
28.9797
 11
-21.1179
 21
29.2876
  0
LINE
  8
0
 10
-21.1179
 20
29.2876
 11
-21.0366
 21
29.591
  0
LINE
  8
0
 10
-21.0366
 20
29.591
 11
-20.9364
 21
29.8887
  0
LINE
  8
0
 10
-20.9364
 20
29.8887
 11
-20.8177
 21
30.1795
  0
LINE
  8
0
 10
-20.8177
 20
30.1795
 11
-20.681
 21
30.4623
  0
LINE
  8
0
 10
-20.681
 20
30.4623
 11
-20.5268
 21
30.7359
  0
LINE
  8
0
 10
-20.5268
 20
30.7359
 11
-20.3557
 21
30.9994
  0
LINE
  8
0
 10
-20.3557
 20
30.9994
 11
-20.1685
 21
31.2516
  0
LINE
  8
0
 10
-20.1685
 20
31.2516
 11
-19.9657
 21
31.4915
  0
LINE
  8
0
 10
-19.9657
 20
31.4915
 11
-19.7483
 21
31.7182
  0
LINE
  8
0
 10
-19.7483
 20
31.7182
 11
-19.5171
 21
31.9308
  0
LINE
  8
0
 10
-19.5171
 20
31.9308
 11
-19.273
 21
32.1285
  0
LINE
  8
0
 10
-19.273
 20
32.1285
 11
-19.017
 21
32.3104
  0
LINE
  8
0
 10
-19.017
 20
32.3104
 11
-18.7606
 21
32.4694
  0
LINE
  8
0
 10
-18.7606
 20
32.4694
 11
-16.2671
 21
28.1504
  0
LINE
  8
0
 10
-16.2671
 20
28.1504
 11
-20.586
 21
25.6568
  0
LINE
  8
0
 10
-20.586
 20
25.6568
 11
-20.7285
 21
25.9226
  0
LINE
  8
0
 10
-16.2329
 20
28.1413
 11
-11.914
 21
30.6348
  0
LINE
  8
0
 10
-11.914
 20
30.6348
 11
-11.7714
 21
30.369
  0
LINE
  8
0
 10
-11.7714
 20
30.369
 11
-11.6407
 21
30.0834
  0
LINE
  8
0
 10
-11.6407
 20
30.0834
 11
-11.5281
 21
29.7901
  0
LINE
  8
0
 10
-11.5281
 20
29.7901
 11
-11.4342
 21
29.4904
  0
LINE
  8
0
 10
-11.4342
 20
29.4904
 11
-11.3593
 21
29.1854
  0
LINE
  8
0
 10
-11.3593
 20
29.1854
 11
-11.3036
 21
28.8762
  0
LINE
  8
0
 10
-11.3036
 20
28.8762
 11
-11.2675
 21
28.5642
  0
LINE
  8
0
 10
-11.2675
 20
28.5642
 11
-11.2511
 21
28.2505
  0
LINE
  8
0
 10
-11.2511
 20
28.2505
 11
-11.2544
 21
27.9364
  0
LINE
  8
0
 10
-11.2544
 20
27.9364
 11
-11.2774
 21
27.6232
  0
LINE
  8
0
 10
-11.2774
 20
27.6232
 11
-11.32
 21
27.312
  0
LINE
  8
0
 10
-11.32
 20
27.312
 11
-11.3821
 21
27.0041
  0
LINE
  8
0
 10
-11.3821
 20
27.0041
 11
-11.4634
 21
26.7007
  0
LINE
  8
0
 10
-11.4634
 20
26.7007
 11
-11.5636
 21
26.403
  0
LINE
  8
0
 10
-11.5636
 20
26.403
 11
-11.6823
 21
26.1121
  0
LINE
  8
0
 10
-11.6823
 20
26.1121
 11
-11.819
 21
25.8293
  0
LINE
  8
0
 10
-11.819
 20
25.8293
 11
-11.9732
 21
25.5557
  0
LINE
  8
0
 10
-11.9732
 20
25.5557
 11
-12.1442
 21
25.2923
  0
LINE
  8
0
 10
-12.1442
 20
25.2923
 11
-12.3315
 21
25.0401
  0
LINE
  8
0
 10
-12.3315
 20
25.0401
 11
-12.5343
 21
24.8002
  0
LINE
  8
0
 10
-12.5343
 20
24.8002
 11
-12.7517
 21
24.5735
  0
LINE
  8
0
 10
-12.7517
 20
24.5735
 11
-12.9829
 21
24.3608
  0
LINE
  8
0
 10
-12.9829
 20
24.3608
 11
-13.227
 21
24.1632
  0
LINE
  8
0
 10
-13.227
 20
24.1632
 11
-13.483
 21
23.9812
  0
LINE
  8
0
 10
-13.483
 20
23.9812
 11
-13.7394
 21
23.8223
  0
LINE
  8
0
 10
-13.7394
 20
23.8223
 11
-16.2329
 21
28.1413
  0
LINE
  8
0
 10
-16.4594
 20
23.1502
 11
-16.7726
 21
23.1732
  0
LINE
  8
0
 10
-16.7726
 20
23.1732
 11
-17.0838
 21
23.2158
  0
LINE
  8
0
 10
-17.0838
 20
23.2158
 11
-17.3918
 21
23.2779
  0
LINE
  8
0
 10
-17.3918
 20
23.2779
 11
-17.6952
 21
23.3592
  0
LINE
  8
0
 10
-17.6952
 20
23.3592
 11
-17.9929
 21
23.4594
  0
LINE
  8
0
 10
-17.9929
 20
23.4594
 11
-18.2837
 21
23.5781
  0
LINE
  8
0
 10
-18.2837
 20
23.5781
 11
-18.5665
 21
23.7148
  0
LINE
  8
0
 10
-18.5665
 20
23.7148
 11
-18.8401
 21
23.869
  0
LINE
  8
0
 10
-18.8401
 20
23.869
 11
-19.1036
 21
24.0401
  0
LINE
  8
0
 10
-19.1036
 20
24.0401
 11
-19.3557
 21
24.2274
  0
LINE
  8
0
 10
-19.3557
 20
24.2274
 11
-19.5956
 21
24.4301
  0
LINE
  8
0
 10
-19.5956
 20
24.4301
 11
-19.8224
 21
24.6475
  0
LINE
  8
0
 10
-19.8224
 20
24.6475
 11
-20.035
 21
24.8787
  0
LINE
  8
0
 10
-20.035
 20
24.8787
 11
-20.2326
 21
25.1228
  0
LINE
  8
0
 10
-20.2326
 20
25.1228
 11
-20.4146
 21
25.3789
  0
LINE
  8
0
 10
-20.4146
 20
25.3789
 11
-20.5735
 21
25.6352
  0
LINE
  8
0
 10
-20.5735
 20
25.6352
 11
-16.2546
 21
28.1287
  0
LINE
  8
0
 10
-16.2546
 20
28.1287
 11
-13.761
 21
23.8098
  0
LINE
  8
0
 10
-13.761
 20
23.8098
 11
-14.0268
 21
23.6673
  0
LINE
  8
0
 10
-14.0268
 20
23.6673
 11
-14.3124
 21
23.5365
  0
LINE
  8
0
 10
-14.3124
 20
23.5365
 11
-14.6057
 21
23.4239
  0
LINE
  8
0
 10
-14.6057
 20
23.4239
 11
-14.9054
 21
23.33
  0
LINE
  8
0
 10
-14.9054
 20
23.33
 11
-15.2104
 21
23.2551
  0
LINE
  8
0
 10
-15.2104
 20
23.2551
 11
-15.5196
 21
23.1995
  0
LINE
  8
0
 10
-15.5196
 20
23.1995
 11
-15.8316
 21
23.1634
  0
LINE
  8
0
 10
-15.8316
 20
23.1634
 11
-16.1453
 21
23.1469
  0
LINE
  8
0
 10
-16.1453
 20
23.1469
 11
-16.4594
 21
23.1502
  0
LINE
  8
0
 10
-14.9996
 20
0.0124969
 11
-14.9704
 21
0.941849
  0
LINE
  8
0
 10
-14.9704
 20
0.941849
 11
-14.8817
 21
1.87999
  0
LINE
  8
0
 10
-14.8817
 20
1.87999
 11
-14.7343
 21
2.81071
  0
LINE
  8
0
 10
-14.7343
 20
2.81071
 11
-14.5287
 21
3.73035
  0
LINE
  8
0
 10
-14.5287
 20
3.73035
 11
-14.2658
 21
4.63525
  0
LINE
  8
0
 10
-14.2658
 20
4.63525
 11
-13.9466
 21
5.52187
  0
LINE
  8
0
 10
-13.9466
 20
5.52187
 11
-13.5724
 21
6.38669
  0
LINE
  8
0
 10
-13.5724
 20
6.38669
 11
-13.1446
 21
7.2263
  0
LINE
  8
0
 10
-13.1446
 20
7.2263
 11
-12.6649
 21
8.0374
  0
LINE
  8
0
 10
-12.6649
 20
8.0374
 11
-12.1353
 21
8.81677
  0
LINE
  8
0
 10
-12.1353
 20
8.81677
 11
-11.5577
 21
9.56136
  0
LINE
  8
0
 10
-11.5577
 20
9.56136
 11
-10.9345
 21
10.2682
  0
LINE
  8
0
 10
-10.9345
 20
10.2682
 11
-10.2682
 21
10.9345
  0
LINE
  8
0
 10
-10.2682
 20
10.9345
 11
-9.56136
 21
11.5577
  0
LINE
  8
0
 10
-9.56136
 20
11.5577
 11
-8.81677
 21
12.1353
  0
LINE
  8
0
 10
-8.81677
 20
12.1353
 11
-8.0374
 21
12.6649
  0
LINE
  8
0
 10
-8.0374
 20
12.6649
 11
-7.2263
 21
13.1446
  0
LINE
  8
0
 10
-7.2263
 20
13.1446
 11
-6.38669
 21
13.5724
  0
LINE
  8
0
 10
-6.38669
 20
13.5724
 11
-5.52187
 21
13.9466
  0
LINE
  8
0
 10
-5.52187
 20
13.9466
 11
-4.63525
 21
14.2658
  0
LINE
  8
0
 10
-4.63525
 20
14.2658
 11
-3.73035
 21
14.5287
  0
LINE
  8
0
 10
-3.73035
 20
14.5287
 11
-2.81071
 21
14.7343
  0
LINE
  8
0
 10
-2.81071
 20
14.7343
 11
-1.87999
 21
14.8817
  0
LINE
  8
0
 10
-1.87999
 20
14.8817
 11
-0.941849
 21
14.9704
  0
LINE
  8
0
 10
-0.941849
 20
14.9704
 11
-0.0124969
 21
14.9996
  0
LINE
  8
0
 10
-0.0124969
 20
14.9996
 11
-0.0124969
 21
0.0124969
  0
LINE
  8
0
 10
-0.0124969
 20
0.0124969
 11
-14.9996
 21
0.0124969
  0
LINE
  8
0
 10
0.0124969
 20
0.0124969
 11
0.0124969
 21
14.9996
  0
LINE
  8
0
 10
0.0124969
 20
14.9996
 11
0.941849
 21
14.9704
  0
LINE
  8
0
 10
0.941849
 20
14.9704
 11
1.87999
 21
14.8817
  0
LINE
  8
0
 10
1.87999
 20
14.8817
 11
2.81071
 21
14.7343
  0
LINE
  8
0
 10
2.81071
 20
14.7343
 11
3.73035
 21
14.5287
  0
LINE
  8
0
 10
3.73035
 20
14.5287
 11
4.63525
 21
14.2658
  0
LINE
  8
0
 10
4.63525
 20
14.2658
 11
5.52187
 21
13.9466
  0
LINE
  8
0
 10
5.52187
 20
13.9466
 11
6.38669
 21
13.5724
  0
LINE
  8
0
 10
6.38669
 20
13.5724
 11
7.2263
 21
13.1446
  0
LINE
  8
0
 10
7.2263
 20
13.1446
 11
8.0374
 21
12.6649
  0
LINE
  8
0
 10
8.0374
 20
12.6649
 11
8.81677
 21
12.1353
  0
LINE
  8
0
 10
8.81677
 20
12.1353
 11
9.56136
 21
11.5577
  0
LINE
  8
0
 10
9.56136
 20
11.5577
 11
10.2682
 21
10.9345
  0
LINE
  8
0
 10
10.2682
 20
10.9345
 11
10.9345
 21
10.2682
  0
LINE
  8
0
 10
10.9345
 20
10.2682
 11
11.5577
 21
9.56136
  0
LINE
  8
0
 10
11.5577
 20
9.56136
 11
12.1353
 21
8.81677
  0
LINE
  8
0
 10
12.1353
 20
8.81677
 11
12.6649
 21
8.0374
  0
LINE
  8
0
 10
12.6649
 20
8.0374
 11
13.1446
 21
7.2263
  0
LINE
  8
0
 10
13.1446
 20
7.2263
 11
13.5724
 21
6.38669
  0
LINE
  8
0
 10
13.5724
 20
6.38669
 11
13.9466
 21
5.52187
  0
LINE
  8
0
 10
13.9466
 20
5.52187
 11
14.2658
 21
4.63525
  0
LINE
  8
0
 10
14.2658
 20
4.63525
 11
14.5287
 21
3.73035
  0
LINE
  8
0
 10
14.5287
 20
3.73035
 11
14.7343
 21
2.81071
  0
LINE
  8
0
 10
14.7343
 20
2.81071
 11
14.8817
 21
1.87999
  0
LINE
  8
0
 10
14.8817
 20
1.87999
 11
14.9704
 21
0.941849
  0
LINE
  8
0
 10
14.9704
 20
0.941849
 11
14.9996
 21
0.0124969
  0
LINE
  8
0
 10
14.9996
 20
0.0124969
 11
0.0124969
 21
0.0124969
  0
LINE
  8
0
 10
27.5004
 20
0.0124969
 11
27.5099
 21
0.31395
  0
LINE
  8
0
 10
27.5099
 20
0.31395
 11
27.5394
 21
0.626663
  0
LINE
  8
0
 10
27.5394
 20
0.626663
 11
27.5886
 21
0.936905
  0
LINE
  8
0
 10
27.5886
 20
0.936905
 11
27.6571
 21
1.24344
  0
LINE
  8
0
 10
27.6571
 20
1.24344
 11
27.7447
 21
1.54507
  0
LINE
  8
0
 10
27.7447
 20
1.54507
 11
27.8511
 21
1.84062
  0
LINE
  8
0
 10
27.8511
 20
1.84062
 11
27.9759
 21
2.12889
  0
LINE
  8
0
 10
27.9759
 20
2.12889
 11
28.1185
 21
2.40877
  0
LINE
  8
0
 10
28.1185
 20
2.40877
 11
28.2784
 21
2.67912
  0
LINE
  8
0
 10
28.2784
 20
2.67912
 11
28.4549
 21
2.93892
  0
LINE
  8
0
 10
28.4549
 20
2.93892
 11
28.6474
 21
3.18712
  0
LINE
  8
0
 10
28.6474
 20
3.18712
 11
28.8551
 21
3.42273
  0
LINE
  8
0
 10
28.8551
 20
3.42273
 11
29.0773
 21
3.64484
  0
LINE
  8
0
 10
29.0773
 20
3.64484
 11
29.3129
 21
3.85255
  0
LINE
  8
0
 10
29.3129
 20
3.85255
 11
29.5611
 21
4.04507
  0
LINE
  8
0
 10
29.5611
 20
4.04507
 11
29.8209
 21
4.22163
  0
LINE
  8
0
 10
29.8209
 20
4.22163
 11
30.0912
 21
4.38153
  0
LINE
  8
0
 10
30.0912
 20
4.38153
 11
30.3711
 21
4.52412
  0
LINE
  8
0
 10
30.3711
 20
4.52412
 11
30.6594
 21
4.64888
  0
LINE
  8
0
 10
30.6594
 20
4.64888
 11
30.9549
 21
4.75528
  0
LINE
  8
0
 10
30.9549
 20
4.75528
 11
31.2565
 21
4.84291
  0
LINE
  8
0
 10
31.2565
 20
4.84291
 11
31.5631
 21
4.91142
  0
LINE
  8
0
 10
31.5631
 20
4.91142
 11
31.8733
 21
4.96057
  0
LINE
  8
0
 10
31.8733
 20
4.96057
 11
32.186
 21
4.99013
  0
LINE
  8
0
 10
32.186
 20
4.99013
 11
32.4875
 21
4.9996
  0
LINE
  8
0
 10
32.4875
 20
4.9996
 11
32.4875
 21
0.0124969
  0
LINE
  8
0
 10
32.4875
 20
0.0124969
 11
27.5004
 21
0.0124969
  0
LINE
  8
0
 10
32.5125
 20
0.0124969
 11
32.5125
 21
4.9996
  0
LINE
  8
0
 10
32.5125
 20
4.9996
 11
32.8139
 21
4.99013
  0
LINE
  8
0
 10
32.8139
 20
4.99013
 11
33.1267
 21
4.96057
  0
LINE
  8
0
 10
33.1267
 20
4.96057
 11
33.4369
 21
4.91142
  0
LINE
  8
0
 10
33.4369
 20
4.91142
 11
33.7434
 21
4.84291
  0
LINE
  8
0
 10
33.7434
 20
4.84291
 11
34.0451
 21
4.75528
  0
LINE
  8
0
 10
34.0451
 20
4.75528
 11
34.3406
 21
4.64888
  0
LINE
  8
0
 10
34.3406
 20
4.64888
 11
34.6289
 21
4.52412
  0
LINE
  8
0
 10
34.6289
 20
4.52412
 11
34.9088
 21
4.38153
  0
LINE
  8
0
 10
34.9088
 20
4.38153
 11
35.1791
 21
4.22163
  0
LINE
  8
0
 10
35.1791
 20
4.22163
 11
35.4389
 21
4.04507
  0
LINE
  8
0
 10
35.4389
 20
4.04507
 11
35.6871
 21
3.85255
  0
LINE
  8
0
 10
35.6871
 20
3.85255
 11
35.9227
 21
3.64484
  0
LINE
  8
0
 10
35.9227
 20
3.64484
 11
36.1448
 21
3.42273
  0
LINE
  8
0
 10
36.1448
 20
3.42273
 11
36.3526
 21
3.18712
  0
LINE
  8
0
 10
36.3526
 20
3.18712
 11
36.5451
 21
2.93892
  0
LINE
  8
0
 10
36.5451
 20
2.93892
 11
36.7216
 21
2.67912
  0
LINE
  8
0
 10
36.7216
 20
2.67912
 11
36.8815
 21
2.40877
  0
LINE
  8
0
 10
36.8815
 20
2.40877
 11
37.0241
 21
2.12889
  0
LINE
  8
0
 10
37.0241
 20
2.12889
 11
37.1489
 21
1.84062
  0
LINE
  8
0
 10
37.1489
 20
1.84062
 11
37.2553
 21
1.54507
  0
LINE
  8
0
 10
37.2553
 20
1.54507
 11
37.3429
 21
1.24344
  0
LINE
  8
0
 10
37.3429
 20
1.24344
 11
37.4114
 21
0.936905
  0
LINE
  8
0
 10
37.4114
 20
0.936905
 11
37.4606
 21
0.626663
  0
LINE
  8
0
 10
37.4606
 20
0.626663
 11
37.4901
 21
0.31395
  0
LINE
  8
0
 10
37.4901
 20
0.31395
 11
37.4996
 21
0.0124969
  0
LINE
  8
0
 10
37.4996
 20
0.0124969
 11
32.5125
 21
0.0124969
  0
LINE
  8
0
 10
-61.4921
 20
0.25116
 11
-61.4685
 21
0.501328
  0
LINE
  8
0
 10
-61.4685
 20
0.501328
 11
-61.4291
 21
0.749512
  0
LINE
  8
0
 10
-61.4291
 20
0.749512
 11
-61.3743
 21
0.994751
  0
LINE
  8
0
 10
-61.3743
 20
0.994751
 11
-61.3042
 21
1.23605
  0
LINE
  8
0
 10
-61.3042
 20
1.23605
 11
-61.2191
 21
1.47249
  0
LINE
  8
0
 10
-61.2191
 20
1.47249
 11
-61.1193
 21
1.70311
  0
LINE
  8
0
 10
-61.1193
 20
1.70311
 11
-61.0052
 21
1.927
  0
LINE
  8
0
 10
-61.0052
 20
1.927
 11
-60.8773
 21
2.1433
  0
LINE
  8
0
 10
-60.8773
 20
2.1433
 11
-60.7361
 21
2.35114
  0
LINE
  8
0
 10
-60.7361
 20
2.35114
 11
-60.582
 21
2.54968
  0
LINE
  8
0
 10
-60.582
 20
2.54968
 11
-60.4159
 21
2.73817
  0
LINE
  8
0
 10
-60.4159
 20
2.73817
 11
-60.2382
 21
2.91586
  0
LINE
  8
0
 10
-60.2382
 20
2.91586
 11
-60.0497
 21
3.08205
  0
LINE
  8
0
 10
-60.0497
 20
3.08205
 11
-59.8511
 21
3.23605
  0
LINE
  8
0
 10
-59.8511
 20
3.23605
 11
-59.6433
 21
3.3773
  0
LINE
  8
0
 10
-59.6433
 20
3.3773
 11
-59.427
 21
3.50522
  0
LINE
  8
0
 10
-59.427
 20
3.50522
 11
-59.2031
 21
3.61929
  0
LINE
  8
0
 10
-59.2031
 20
3.61929
 11
-58.9725
 21
3.7191
  0
LINE
  8
0
 10
-58.9725
 20
3.7191
 11
-58.7361
 21
3.80421
  0
LINE
  8
0
 10
-58.7361
 20
3.80421
 11
-58.4948
 21
3.87433
  0
LINE
  8
0
 10
-58.4948
 20
3.87433
 11
-58.2495
 21
3.92914
  0
LINE
  8
0
 10
-58.2495
 20
3.92914
 11
-58.0013
 21
3.96844
  0
LINE
  8
0
 10
-58.0013
 20
3.96844
 11
-57.7512
 21
3.9921
  0
LINE
  8
0
 10
-57.7512
 20
3.9921
 11
-57.5125
 21
3.9996
  0
LINE
  8
0
 10
-57.5125
 20
3.9996
 11
-57.5125
 21
0.0124969
  0
LINE
  8
0
 10
-57.5125
 20
0.0124969
 11
-61.4996
 21
0.0124969
  0
LINE
  8
0
 10
-61.4996
 20
0.0124969
 11
-61.4921
 21
0.25116
  0
LINE
  8
0
 10
-57.4875
 20
0.0124969
 11
-57.4875
 21
3.9996
  0
LINE
  8
0
 10
-57.4875
 20
3.9996
 11
-57.2488
 21
3.9921
  0
LINE
  8
0
 10
-57.2488
 20
3.9921
 11
-56.9987
 21
3.96844
  0
LINE
  8
0
 10
-56.9987
 20
3.96844
 11
-56.7505
 21
3.92914
  0
LINE
  8
0
 10
-56.7505
 20
3.92914
 11
-56.5052
 21
3.87433
  0
LINE
  8
0
 10
-56.5052
 20
3.87433
 11
-56.2639
 21
3.80421
  0
LINE
  8
0
 10
-56.2639
 20
3.80421
 11
-56.0275
 21
3.7191
  0
LINE
  8
0
 10
-56.0275
 20
3.7191
 11
-55.7969
 21
3.61929
  0
LINE
  8
0
 10
-55.7969
 20
3.61929
 11
-55.573
 21
3.50522
  0
LINE
  8
0
 10
-55.573
 20
3.50522
 11
-55.3567
 21
3.3773
  0
LINE
  8
0
 10
-55.3567
 20
3.3773
 11
-55.1488
 21
3.23605
  0
LINE
  8
0
 10
-55.1488
 20
3.23605
 11
-54.9503
 21
3.08205
  0
LINE
  8
0
 10
-54.9503
 20
3.08205
 11
-54.7618
 21
2.91586
  0
LINE
  8
0
 10
-54.7618
 20
2.91586
 11
-54.5841
 21
2.73817
  0
LINE
  8
0
 10
-54.5841
 20
2.73817
 11
-54.4179
 21
2.54968
  0
LINE
  8
0
 10
-54.4179
 20
2.54968
 11
-54.2639
 21
2.35114
  0
LINE
  8
0
 10
-54.2639
 20
2.35114
 11
-54.1227
 21
2.1433
  0
LINE
  8
0
 10
-54.1227
 20
2.1433
 11
-53.9948
 21
1.927
  0
LINE
  8
0
 10
-53.9948
 20
1.927
 11
-53.8807
 21
1.70311
  0
LINE
  8
0
 10
-53.8807
 20
1.70311
 11
-53.7809
 21
1.47249
  0
LINE
  8
0
 10
-53.7809
 20
1.47249
 11
-53.6958
 21
1.23605
  0
LINE
  8
0
 10
-53.6958
 20
1.23605
 11
-53.6257
 21
0.994751
  0
LINE
  8
0
 10
-53.6257
 20
0.994751
 11
-53.5708
 21
0.749512
  0
LINE
  8
0
 10
-53.5708
 20
0.749512
 11
-53.5315
 21
0.501328
  0
LINE
  8
0
 10
-53.5315
 20
0.501328
 11
-53.5079
 21
0.25116
  0
LINE
  8
0
 10
-53.5079
 20
0.25116
 11
-53.5004
 21
0.0124969
  0
LINE
  8
0
 10
-53.5004
 20
0.0124969
 11
-57.4875
 21
0.0124969
  0
LINE
  8
0
 10
53.5004
 20
0.0124969
 11
53.5079
 21
0.25116
  0
LINE
  8
0
 10
53.5079
 20
0.25116
 11
53.5315
 21
0.501328
  0
LINE
  8
0
 10
53.5315
 20
0.501328
 11
53.5708
 21
0.749512
  0
LINE
  8
0
 10
53.5708
 20
0.749512
 11
53.6257
 21
0.994751
  0
LINE
  8
0
 10
53.6257
 20
0.994751
 11
53.6958
 21
1.23605
  0
LINE
  8
0
 10
53.6958
 20
1.23605
 11
53.7809
 21
1.47249
  0
LINE
  8
0
 10
53.7809
 20
1.47249
 11
53.8807
 21
1.70311
  0
LINE
  8
0
 10
53.8807
 20
1.70311
 11
53.9948
 21
1.927
  0
LINE
  8
0
 10
53.9948
 20
1.927
 11
54.1227
 21
2.1433
  0
LINE
  8
0
 10
54.1227
 20
2.1433
 11
54.2639
 21
2.35114
  0
LINE
  8
0
 10
54.2639
 20
2.35114
 11
54.4179
 21
2.54968
  0
LINE
  8
0
 10
54.4179
 20
2.54968
 11
54.5841
 21
2.73817
  0
LINE
  8
0
 10
54.5841
 20
2.73817
 11
54.7618
 21
2.91586
  0
LINE
  8
0
 10
54.7618
 20
2.91586
 11
54.9503
 21
3.08205
  0
LINE
  8
0
 10
54.9503
 20
3.08205
 11
55.1488
 21
3.23605
  0
LINE
  8
0
 10
55.1488
 20
3.23605
 11
55.3567
 21
3.3773
  0
LINE
  8
0
 10
55.3567
 20
3.3773
 11
55.573
 21
3.50522
  0
LINE
  8
0
 10
55.573
 20
3.50522
 11
55.7969
 21
3.61929
  0
LINE
  8
0
 10
55.7969
 20
3.61929
 11
56.0275
 21
3.7191
  0
LINE
  8
0
 10
56.0275
 20
3.7191
 11
56.2639
 21
3.80421
  0
LINE
  8
0
 10
56.2639
 20
3.80421
 11
56.5052
 21
3.87433
  0
LINE
  8
0
 10
56.5052
 20
3.87433
 11
56.7505
 21
3.92914
  0
LINE
  8
0
 10
56.7505
 20
3.92914
 11
56.9987
 21
3.96844
  0
LINE
  8
0
 10
56.9987
 20
3.96844
 11
57.2488
 21
3.9921
  0
LINE
  8
0
 10
57.2488
 20
3.9921
 11
57.4875
 21
3.9996
  0
LINE
  8
0
 10
57.4875
 20
3.9996
 11
57.4875
 21
0.0124969
  0
LINE
  8
0
 10
57.4875
 20
0.0124969
 11
53.5004
 21
0.0124969
  0
LINE
  8
0
 10
57.5125
 20
0.0124969
 11
57.5125
 21
3.9996
  0
LINE
  8
0
 10
57.5125
 20
3.9996
 11
57.7512
 21
3.9921
  0
LINE
  8
0
 10
57.7512
 20
3.9921
 11
58.0013
 21
3.96844
  0
LINE
  8
0
 10
58.0013
 20
3.96844
 11
58.2495
 21
3.92914
  0
LINE
  8
0
 10
58.2495
 20
3.92914
 11
58.4948
 21
3.87433
  0
LINE
  8
0
 10
58.4948
 20
3.87433
 11
58.7361
 21
3.80421
  0
LINE
  8
0
 10
58.7361
 20
3.80421
 11
58.9725
 21
3.7191
  0
LINE
  8
0
 10
58.9725
 20
3.7191
 11
59.2031
 21
3.61929
  0
LINE
  8
0
 10
59.2031
 20
3.61929
 11
59.427
 21
3.50522
  0
LINE
  8
0
 10
59.427
 20
3.50522
 11
59.6433
 21
3.3773
  0
LINE
  8
0
 10
59.6433
 20
3.3773
 11
59.8511
 21
3.23605
  0
LINE
  8
0
 10
59.8511
 20
3.23605
 11
60.0497
 21
3.08205
  0
LINE
  8
0
 10
60.0497
 20
3.08205
 11
60.2382
 21
2.91586
  0
LINE
  8
0
 10
60.2382
 20
2.91586
 11
60.4159
 21
2.73817
  0
LINE
  8
0
 10
60.4159
 20
2.73817
 11
60.582
 21
2.54968
  0
LINE
  8
0
 10
60.582
 20
2.54968
 11
60.7361
 21
2.35114
  0
LINE
  8
0
 10
60.7361
 20
2.35114
 11
60.8773
 21
2.1433
  0
LINE
  8
0
 10
60.8773
 20
2.1433
 11
61.0052
 21
1.927
  0
LINE
  8
0
 10
61.0052
 20
1.927
 11
61.1193
 21
1.70311
  0
LINE
  8
0
 10
61.1193
 20
1.70311
 11
61.2191
 21
1.47249
  0
LINE
  8
0
 10
61.2191
 20
1.47249
 11
61.3042
 21
1.23605
  0
LINE
  8
0
 10
61.3042
 20
1.23605
 11
61.3743
 21
0.994751
  0
LINE
  8
0
 10
61.3743
 20
0.994751
 11
61.4291
 21
0.749512
  0
LINE
  8
0
 10
61.4291
 20
0.749512
 11
61.4685
 21
0.501328
  0
LINE
  8
0
 10
61.4685
 20
0.501328
 11
61.4921
 21
0.25116
  0
LINE
  8
0
 10
61.4921
 20
0.25116
 11
61.4996
 21
0.0124969
  0
LINE
  8
0
 10
61.4996
 20
0.0124969
 11
57.5125
 21
0.0124969
  0
LINE
  8
0
 10
57.5125
 20
-3.9996
 11
57.5125
 21
-0.0124969
  0
LINE
  8
0
 10
57.5125
 20
-0.0124969
 11
61.4996
 21
-0.0124969
  0
LINE
  8
0
 10
61.4996
 20
-0.0124969
 11
61.4921
 21
-0.25116
  0
LINE
  8
0
 10
61.4921
 20
-0.25116
 11
61.4685
 21
-0.501328
  0
LINE
  8
0
 10
61.4685
 20
-0.501328
 11
61.4291
 21
-0.749512
  0
LINE
  8
0
 10
61.4291
 20
-0.749512
 11
61.3743
 21
-0.994751
  0
LINE
  8
0
 10
61.3743
 20
-0.994751
 11
61.3042
 21
-1.23605
  0
LINE
  8
0
 10
61.3042
 20
-1.23605
 11
61.2191
 21
-1.47249
  0
LINE
  8
0
 10
61.2191
 20
-1.47249
 11
61.1193
 21
-1.70311
  0
LINE
  8
0
 10
61.1193
 20
-1.70311
 11
61.0052
 21
-1.927
  0
LINE
  8
0
 10
61.0052
 20
-1.927
 11
60.8773
 21
-2.1433
  0
LINE
  8
0
 10
60.8773
 20
-2.1433
 11
60.7361
 21
-2.35114
  0
LINE
  8
0
 10
60.7361
 20
-2.35114
 11
60.582
 21
-2.54968
  0
LINE
  8
0
 10
60.582
 20
-2.54968
 11
60.4159
 21
-2.73817
  0
LINE
  8
0
 10
60.4159
 20
-2.73817
 11
60.2382
 21
-2.91586
  0
LINE
  8
0
 10
60.2382
 20
-2.91586
 11
60.0497
 21
-3.08205
  0
LINE
  8
0
 10
60.0497
 20
-3.08205
 11
59.8511
 21
-3.23605
  0
LINE
  8
0
 10
59.8511
 20
-3.23605
 11
59.6433
 21
-3.3773
  0
LINE
  8
0
 10
59.6433
 20
-3.3773
 11
59.427
 21
-3.50522
  0
LINE
  8
0
 10
59.427
 20
-3.50522
 11
59.2031
 21
-3.61929
  0
LINE
  8
0
 10
59.2031
 20
-3.61929
 11
58.9725
 21
-3.7191
  0
LINE
  8
0
 10
58.9725
 20
-3.7191
 11
58.7361
 21
-3.80421
  0
LINE
  8
0
 10
58.7361
 20
-3.80421
 11
58.4948
 21
-3.87433
  0
LINE
  8
0
 10
58.4948
 20
-3.87433
 11
58.2495
 21
-3.92914
  0
LINE
  8
0
 10
58.2495
 20
-3.92914
 11
58.0013
 21
-3.96844
  0
LINE
  8
0
 10
58.0013
 20
-3.96844
 11
57.7512
 21
-3.9921
  0
LINE
  8
0
 10
57.7512
 20
-3.9921
 11
57.5125
 21
-3.9996
  0
LINE
  8
0
 10
-57.7512
 20
-3.9921
 11
-58.0013
 21
-3.96844
  0
LINE
  8
0
 10
-58.0013
 20
-3.96844
 11
-58.2495
 21
-3.92914
  0
LINE
  8
0
 10
-58.2495
 20
-3.92914
 11
-58.4948
 21
-3.87433
  0
LINE
  8
0
 10
-58.4948
 20
-3.87433
 11
-58.7361
 21
-3.80421
  0
LINE
  8
0
 10
-58.7361
 20
-3.80421
 11
-58.9725
 21
-3.7191
  0
LINE
  8
0
 10
-58.9725
 20
-3.7191
 11
-59.2031
 21
-3.61929
  0
LINE
  8
0
 10
-59.2031
 20
-3.61929
 11
-59.427
 21
-3.50522
  0
LINE
  8
0
 10
-59.427
 20
-3.50522
 11
-59.6433
 21
-3.3773
  0
LINE
  8
0
 10
-59.6433
 20
-3.3773
 11
-59.8511
 21
-3.23605
  0
LINE
  8
0
 10
-59.8511
 20
-3.23605
 11
-60.0497
 21
-3.08205
  0
LINE
  8
0
 10
-60.0497
 20
-3.08205
 11
-60.2382
 21
-2.91586
  0
LINE
  8
0
 10
-60.2382
 20
-2.91586
 11
-60.4159
 21
-2.73817
  0
LINE
  8
0
 10
-60.4159
 20
-2.73817
 11
-60.582
 21
-2.54968
  0
LINE
  8
0
 10
-60.582
 20
-2.54968
 11
-60.7361
 21
-2.35114
  0
LINE
  8
0
 10
-60.7361
 20
-2.35114
 11
-60.8773
 21
-2.1433
  0
LINE
  8
0
 10
-60.8773
 20
-2.1433
 11
-61.0052
 21
-1.927
  0
LINE
  8
0
 10
-61.0052
 20
-1.927
 11
-61.1193
 21
-1.70311
  0
LINE
  8
0
 10
-61.1193
 20
-1.70311
 11
-61.2191
 21
-1.47249
  0
LINE
  8
0
 10
-61.2191
 20
-1.47249
 11
-61.3042
 21
-1.23605
  0
LINE
  8
0
 10
-61.3042
 20
-1.23605
 11
-61.3743
 21
-0.994751
  0
LINE
  8
0
 10
-61.3743
 20
-0.994751
 11
-61.4291
 21
-0.749512
  0
LINE
  8
0
 10
-61.4291
 20
-0.749512
 11
-61.4685
 21
-0.501328
  0
LINE
  8
0
 10
-61.4685
 20
-0.501328
 11
-61.4921
 21
-0.25116
  0
LINE
  8
0
 10
-61.4921
 20
-0.25116
 11
-61.4996
 21
-0.0124969
  0
LINE
  8
0
 10
-61.4996
 20
-0.0124969
 11
-57.5125
 21
-0.0124969
  0
LINE
  8
0
 10
-57.5125
 20
-0.0124969
 11
-57.5125
 21
-3.9996
  0
LINE
  8
0
 10
-57.5125
 20
-3.9996
 11
-57.7512
 21
-3.9921
  0
LINE
  8
0
 10
-57.4875
 20
-0.0124969
 11
-53.5004
 21
-0.0124969
  0
LINE
  8
0
 10
-53.5004
 20
-0.0124969
 11
-53.5079
 21
-0.25116
  0
LINE
  8
0
 10
-53.5079
 20
-0.25116
 11
-53.5315
 21
-0.501328
  0
LINE
  8
0
 10
-53.5315
 20
-0.501328
 11
-53.5708
 21
-0.749512
  0
LINE
  8
0
 10
-53.5708
 20
-0.749512
 11
-53.6257
 21
-0.994751
  0
LINE
  8
0
 10
-53.6257
 20
-0.994751
 11
-53.6958
 21
-1.23605
  0
LINE
  8
0
 10
-53.6958
 20
-1.23605
 11
-53.7809
 21
-1.47249
  0
LINE
  8
0
 10
-53.7809
 20
-1.47249
 11
-53.8807
 21
-1.70311
  0
LINE
  8
0
 10
-53.8807
 20
-1.70311
 11
-53.9948
 21
-1.927
  0
LINE
  8
0
 10
-53.9948
 20
-1.927
 11
-54.1227
 21
-2.1433
  0
LINE
  8
0
 10
-54.1227
 20
-2.1433
 11
-54.2639
 21
-2.35114
  0
LINE
  8
0
 10
-54.2639
 20
-2.35114
 11
-54.4179
 21
-2.54968
  0
LINE
  8
0
 10
-54.4179
 20
-2.54968
 11
-54.5841
 21
-2.73817
  0
LINE
  8
0
 10
-54.5841
 20
-2.73817
 11
-54.7618
 21
-2.91586
  0
LINE
  8
0
 10
-54.7618
 20
-2.91586
 11
-54.9503
 21
-3.08205
  0
LINE
  8
0
 10
-54.9503
 20
-3.08205
 11
-55.1488
 21
-3.23605
  0
LINE
  8
0
 10
-55.1488
 20
-3.23605
 11
-55.3567
 21
-3.3773
  0
LINE
  8
0
 10
-55.3567
 20
-3.3773
 11
-55.573
 21
-3.50522
  0
LINE
  8
0
 10
-55.573
 20
-3.50522
 11
-55.7969
 21
-3.61929
  0
LINE
  8
0
 10
-55.7969
 20
-3.61929
 11
-56.0275
 21
-3.7191
  0
LINE
  8
0
 10
-56.0275
 20
-3.7191
 11
-56.2639
 21
-3.80421
  0
LINE
  8
0
 10
-56.2639
 20
-3.80421
 11
-56.5052
 21
-3.87433
  0
LINE
  8
0
 10
-56.5052
 20
-3.87433
 11
-56.7505
 21
-3.92914
  0
LINE
  8
0
 10
-56.7505
 20
-3.92914
 11
-56.9987
 21
-3.96844
  0
LINE
  8
0
 10
-56.9987
 20
-3.96844
 11
-57.2488
 21
-3.9921
  0
LINE
  8
0
 10
-57.2488
 20
-3.9921
 11
-57.4875
 21
-3.9996
  0
LINE
  8
0
 10
-57.4875
 20
-3.9996
 11
-57.4875
 21
-0.0124969
  0
LINE
  8
0
 10
32.5125
 20
-0.0124969
 11
37.4996
 21
-0.0124969
  0
LINE
  8
0
 10
37.4996
 20
-0.0124969
 11
37.4901
 21
-0.31395
  0
LINE
  8
0
 10
37.4901
 20
-0.31395
 11
37.4606
 21
-0.626663
  0
LINE
  8
0
 10
37.4606
 20
-0.626663
 11
37.4114
 21
-0.936905
  0
LINE
  8
0
 10
37.4114
 20
-0.936905
 11
37.3429
 21
-1.24344
  0
LINE
  8
0
 10
37.3429
 20
-1.24344
 11
37.2553
 21
-1.54507
  0
LINE
  8
0
 10
37.2553
 20
-1.54507
 11
37.1489
 21
-1.84062
  0
LINE
  8
0
 10
37.1489
 20
-1.84062
 11
37.0241
 21
-2.12889
  0
LINE
  8
0
 10
37.0241
 20
-2.12889
 11
36.8815
 21
-2.40877
  0
LINE
  8
0
 10
36.8815
 20
-2.40877
 11
36.7216
 21
-2.67912
  0
LINE
  8
0
 10
36.7216
 20
-2.67912
 11
36.5451
 21
-2.93892
  0
LINE
  8
0
 10
36.5451
 20
-2.93892
 11
36.3526
 21
-3.18712
  0
LINE
  8
0
 10
36.3526
 20
-3.18712
 11
36.1448
 21
-3.42273
  0
LINE
  8
0
 10
36.1448
 20
-3.42273
 11
35.9227
 21
-3.64484
  0
LINE
  8
0
 10
35.9227
 20
-3.64484
 11
35.6871
 21
-3.85255
  0
LINE
  8
0
 10
35.6871
 20
-3.85255
 11
35.4389
 21
-4.04507
  0
LINE
  8
0
 10
35.4389
 20
-4.04507
 11
35.1791
 21
-4.22163
  0
LINE
  8
0
 10
35.1791
 20
-4.22163
 11
34.9088
 21
-4.38153
  0
LINE
  8
0
 10
34.9088
 20
-4.38153
 11
34.6289
 21
-4.52412
  0
LINE
  8
0
 10
34.6289
 20
-4.52412
 11
34.3406
 21
-4.64888
  0
LINE
  8
0
 10
34.3406
 20
-4.64888
 11
34.0451
 21
-4.75528
  0
LINE
  8
0
 10
34.0451
 20
-4.75528
 11
33.7434
 21
-4.84291
  0
LINE
  8
0
 10
33.7434
 20
-4.84291
 11
33.4369
 21
-4.91142
  0
LINE
  8
0
 10
33.4369
 20
-4.91142
 11
33.1267
 21
-4.96057
  0
LINE
  8
0
 10
33.1267
 20
-4.96057
 11
32.8139
 21
-4.99013
  0
LINE
  8
0
 10
32.8139
 20
-4.99013
 11
32.5125
 21
-4.9996
  0
LINE
  8
0
 10
32.5125
 20
-4.9996
 11
32.5125
 21
-0.0124969
  0
LINE
  8
0
 10
0.0124969
 20
-0.0124969
 11
14.9996
 21
-0.0124969
  0
LINE
  8
0
 10
14.9996
 20
-0.0124969
 11
14.9704
 21
-0.941849
  0
LINE
  8
0
 10
14.9704
 20
-0.941849
 11
14.8817
 21
-1.87999
  0
LINE
  8
0
 10
14.8817
 20
-1.87999
 11
14.7343
 21
-2.81071
  0
LINE
  8
0
 10
14.7343
 20
-2.81071
 11
14.5287
 21
-3.73035
  0
LINE
  8
0
 10
14.5287
 20
-3.73035
 11
14.2658
 21
-4.63525
  0
LINE
  8
0
 10
14.2658
 20
-4.63525
 11
13.9466
 21
-5.52187
  0
LINE
  8
0
 10
13.9466
 20
-5.52187
 11
13.5724
 21
-6.38669
  0
LINE
  8
0
 10
13.5724
 20
-6.38669
 11
13.1446
 21
-7.2263
  0
LINE
  8
0
 10
13.1446
 20
-7.2263
 11
12.6649
 21
-8.0374
  0
LINE
  8
0
 10
12.6649
 20
-8.0374
 11
12.1353
 21
-8.81677
  0
LINE
  8
0
 10
12.1353
 20
-8.81677
 11
11.5577
 21
-9.56136
  0
LINE
  8
0
 10
11.5577
 20
-9.56136
 11
10.9345
 21
-10.2682
  0
LINE
  8
0
 10
10.9345
 20
-10.2682
 11
10.2682
 21
-10.9345
  0
LINE
  8
0
 10
10.2682
 20
-10.9345
 11
9.56136
 21
-11.5577
  0
LINE
  8
0
 10
9.56136
 20
-11.5577
 11
8.81677
 21
-12.1353
  0
LINE
  8
0
 10
8.81677
 20
-12.1353
 11
8.0374
 21
-12.6649
  0
LINE
  8
0
 10
8.0374
 20
-12.6649
 11
7.2263
 21
-13.1446
  0
LINE
  8
0
 10
7.2263
 20
-13.1446
 11
6.38669
 21
-13.5724
  0
LINE
  8
0
 10
6.38669
 20
-13.5724
 11
5.52187
 21
-13.9466
  0
LINE
  8
0
 10
5.52187
 20
-13.9466
 11
4.63525
 21
-14.2658
  0
LINE
  8
0
 10
4.63525
 20
-14.2658
 11
3.73035
 21
-14.5287
  0
LINE
  8
0
 10
3.73035
 20
-14.5287
 11
2.81071
 21
-14.7343
  0
LINE
  8
0
 10
2.81071
 20
-14.7343
 11
1.87999
 21
-14.8817
  0
LINE
  8
0
 10
1.87999
 20
-14.8817
 11
0.941849
 21
-14.9704
  0
LINE
  8
0
 10
0.941849
 20
-14.9704
 11
0.0124969
 21
-14.9996
  0
LINE
  8
0
 10
0.0124969
 20
-14.9996
 11
0.0124969
 21
-0.0124969
  0
LINE
  8
0
 10
32.186
 20
-4.99013
 11
31.8733
 21
-4.96057
  0
LINE
  8
0
 10
31.8733
 20
-4.96057
 11
31.5631
 21
-4.91142
  0
LINE
  8
0
 10
31.5631
 20
-4.91142
 11
31.2565
 21
-4.84291
  0
LINE
  8
0
 10
31.2565
 20
-4.84291
 11
30.9549
 21
-4.75528
  0
LINE
  8
0
 10
30.9549
 20
-4.75528
 11
30.6594
 21
-4.64888
  0
LINE
  8
0
 10
30.6594
 20
-4.64888
 11
30.3711
 21
-4.52412
  0
LINE
  8
0
 10
30.3711
 20
-4.52412
 11
30.0912
 21
-4.38153
  0
LINE
  8
0
 10
30.0912
 20
-4.38153
 11
29.8209
 21
-4.22163
  0
LINE
  8
0
 10
29.8209
 20
-4.22163
 11
29.5611
 21
-4.04507
  0
LINE
  8
0
 10
29.5611
 20
-4.04507
 11
29.3129
 21
-3.85255
  0
LINE
  8
0
 10
29.3129
 20
-3.85255
 11
29.0773
 21
-3.64484
  0
LINE
  8
0
 10
29.0773
 20
-3.64484
 11
28.8551
 21
-3.42273
  0
LINE
  8
0
 10
28.8551
 20
-3.42273
 11
28.6474
 21
-3.18712
  0
LINE
  8
0
 10
28.6474
 20
-3.18712
 11
28.4549
 21
-2.93892
  0
LINE
  8
0
 10
28.4549
 20
-2.93892
 11
28.2784
 21
-2.67912
  0
LINE
  8
0
 10
28.2784
 20
-2.67912
 11
28.1185
 21
-2.40877
  0
LINE
  8
0
 10
28.1185
 20
-2.40877
 11
27.9759
 21
-2.12889
  0
LINE
  8
0
 10
27.9759
 20
-2.12889
 11
27.8511
 21
-1.84062
  0
LINE
  8
0
 10
27.8511
 20
-1.84062
 11
27.7447
 21
-1.54507
  0
LINE
  8
0
 10
27.7447
 20
-1.54507
 11
27.6571
 21
-1.24344
  0
LINE
  8
0
 10
27.6571
 20
-1.24344
 11
27.5886
 21
-0.936905
  0
LINE
  8
0
 10
27.5886
 20
-0.936905
 11
27.5394
 21
-0.626663
  0
LINE
  8
0
 10
27.5394
 20
-0.626663
 11
27.5099
 21
-0.31395
  0
LINE
  8
0
 10
27.5099
 20
-0.31395
 11
27.5004
 21
-0.0124969
  0
LINE
  8
0
 10
27.5004
 20
-0.0124969
 11
32.4875
 21
-0.0124969
  0
LINE
  8
0
 10
32.4875
 20
-0.0124969
 11
32.4875
 21
-4.9996
  0
LINE
  8
0
 10
32.4875
 20
-4.9996
 11
32.186
 21
-4.99013
  0
LINE
  8
0
 10
57.2488
 20
-3.9921
 11
56.9987
 21
-3.96844
  0
LINE
  8
0
 10
56.9987
 20
-3.96844
 11
56.7505
 21
-3.92914
  0
LINE
  8
0
 10
56.7505
 20
-3.92914
 11
56.5052
 21
-3.87433
  0
LINE
  8
0
 10
56.5052
 20
-3.87433
 11
56.2639
 21
-3.80421
  0
LINE
  8
0
 10
56.2639
 20
-3.80421
 11
56.0275
 21
-3.7191
  0
LINE
  8
0
 10
56.0275
 20
-3.7191
 11
55.7969
 21
-3.61929
  0
LINE
  8
0
 10
55.7969
 20
-3.61929
 11
55.573
 21
-3.50522
  0
LINE
  8
0
 10
55.573
 20
-3.50522
 11
55.3567
 21
-3.3773
  0
LINE
  8
0
 10
55.3567
 20
-3.3773
 11
55.1488
 21
-3.23605
  0
LINE
  8
0
 10
55.1488
 20
-3.23605
 11
54.9503
 21
-3.08205
  0
LINE
  8
0
 10
54.9503
 20
-3.08205
 11
54.7618
 21
-2.91586
  0
LINE
  8
0
 10
54.7618
 20
-2.91586
 11
54.5841
 21
-2.73817
  0
LINE
  8
0
 10
54.5841
 20
-2.73817
 11
54.4179
 21
-2.54968
  0
LINE
  8
0
 10
54.4179
 20
-2.54968
 11
54.2639
 21
-2.35114
  0
LINE
  8
0
 10
54.2639
 20
-2.35114
 11
54.1227
 21
-2.1433
  0
LINE
  8
0
 10
54.1227
 20
-2.1433
 11
53.9948
 21
-1.927
  0
LINE
  8
0
 10
53.9948
 20
-1.927
 11
53.8807
 21
-1.70311
  0
LINE
  8
0
 10
53.8807
 20
-1.70311
 11
53.7809
 21
-1.47249
  0
LINE
  8
0
 10
53.7809
 20
-1.47249
 11
53.6958
 21
-1.23605
  0
LINE
  8
0
 10
53.6958
 20
-1.23605
 11
53.6257
 21
-0.994751
  0
LINE
  8
0
 10
53.6257
 20
-0.994751
 11
53.5708
 21
-0.749512
  0
LINE
  8
0
 10
53.5708
 20
-0.749512
 11
53.5315
 21
-0.501328
  0
LINE
  8
0
 10
53.5315
 20
-0.501328
 11
53.5079
 21
-0.25116
  0
LINE
  8
0
 10
53.5079
 20
-0.25116
 11
53.5004
 21
-0.0124969
  0
LINE
  8
0
 10
53.5004
 20
-0.0124969
 11
57.4875
 21
-0.0124969
  0
LINE
  8
0
 10
57.4875
 20
-0.0124969
 11
57.4875
 21
-3.9996
  0
LINE
  8
0
 10
57.4875
 20
-3.9996
 11
57.2488
 21
-3.9921
  0
LINE
  8
0
 10
-0.941849
 20
-14.9704
 11
-1.87999
 21
-14.8817
  0
LINE
  8
0
 10
-1.87999
 20
-14.8817
 11
-2.81071
 21
-14.7343
  0
LINE
  8
0
 10
-2.81071
 20
-14.7343
 11
-3.73035
 21
-14.5287
  0
LINE
  8
0
 10
-3.73035
 20
-14.5287
 11
-4.63525
 21
-14.2658
  0
LINE
  8
0
 10
-4.63525
 20
-14.2658
 11
-5.52187
 21
-13.9466
  0
LINE
  8
0
 10
-5.52187
 20
-13.9466
 11
-6.38669
 21
-13.5724
  0
LINE
  8
0
 10
-6.38669
 20
-13.5724
 11
-7.2263
 21
-13.1446
  0
LINE
  8
0
 10
-7.2263
 20
-13.1446
 11
-8.0374
 21
-12.6649
  0
LINE
  8
0
 10
-8.0374
 20
-12.6649
 11
-8.81677
 21
-12.1353
  0
LINE
  8
0
 10
-8.81677
 20
-12.1353
 11
-9.56136
 21
-11.5577
  0
LINE
  8
0
 10
-9.56136
 20
-11.5577
 11
-10.2682
 21
-10.9345
  0
LINE
  8
0
 10
-10.2682
 20
-10.9345
 11
-10.9345
 21
-10.2682
  0
LINE
  8
0
 10
-10.9345
 20
-10.2682
 11
-11.5577
 21
-9.56136
  0
LINE
  8
0
 10
-11.5577
 20
-9.56136
 11
-12.1353
 21
-8.81677
  0
LINE
  8
0
 10
-12.1353
 20
-8.81677
 11
-12.6649
 21
-8.0374
  0
LINE
  8
0
 10
-12.6649
 20
-8.0374
 11
-13.1446
 21
-7.2263
  0
LINE
  8
0
 10
-13.1446
 20
-7.2263
 11
-13.5724
 21
-6.38669
  0
LINE
  8
0
 10
-13.5724
 20
-6.38669
 11
-13.9466
 21
-5.52187
  0
LINE
  8
0
 10
-13.9466
 20
-5.52187
 11
-14.2658
 21
-4.63525
  0
LINE
  8
0
 10
-14.2658
 20
-4.63525
 11
-14.5287
 21
-3.73035
  0
LINE
  8
0
 10
-14.5287
 20
-3.73035
 11
-14.7343
 21
-2.81071
  0
LINE
  8
0
 10
-14.7343
 20
-2.81071
 11
-14.8817
 21
-1.87999
  0
LINE
  8
0
 10
-14.8817
 20
-1.87999
 11
-14.9704
 21
-0.941849
  0
LINE
  8
0
 10
-14.9704
 20
-0.941849
 11
-14.9996
 21
-0.0124969
  0
LINE
  8
0
 10
-14.9996
 20
-0.0124969
 11
-0.0124969
 21
-0.0124969
  0
LINE
  8
0
 10
-0.0124969
 20
-0.0124969
 11
-0.0124969
 21
-14.9996
  0
LINE
  8
0
 10
-0.0124969
 20
-14.9996
 11
-0.941849
 21
-14.9704
  0
LINE
  8
0
 10
-20.5735
 20
-25.6352
 11
-20.4146
 21
-25.3789
  0
LINE
  8
0
 10
-20.4146
 20
-25.3789
 11
-20.2326
 21
-25.1228
  0
LINE
  8
0
 10
-20.2326
 20
-25.1228
 11
-20.035
 21
-24.8787
  0
LINE
  8
0
 10
-20.035
 20
-24.8787
 11
-19.8224
 21
-24.6475
  0
LINE
  8
0
 10
-19.8224
 20
-24.6475
 11
-19.5956
 21
-24.4301
  0
LINE
  8
0
 10
-19.5956
 20
-24.4301
 11
-19.3557
 21
-24.2274
  0
LINE
  8
0
 10
-19.3557
 20
-24.2274
 11
-19.1036
 21
-24.0401
  0
LINE
  8
0
 10
-19.1036
 20
-24.0401
 11
-18.8401
 21
-23.869
  0
LINE
  8
0
 10
-18.8401
 20
-23.869
 11
-18.5665
 21
-23.7148
  0
LINE
  8
0
 10
-18.5665
 20
-23.7148
 11
-18.2837
 21
-23.5781
  0
LINE
  8
0
 10
-18.2837
 20
-23.5781
 11
-17.9929
 21
-23.4594
  0
LINE
  8
0
 10
-17.9929
 20
-23.4594
 11
-17.6952
 21
-23.3592
  0
LINE
  8
0
 10
-17.6952
 20
-23.3592
 11
-17.3918
 21
-23.2779
  0
LINE
  8
0
 10
-17.3918
 20
-23.2779
 11
-17.0838
 21
-23.2158
  0
LINE
  8
0
 10
-17.0838
 20
-23.2158
 11
-16.7726
 21
-23.1732
  0
LINE
  8
0
 10
-16.7726
 20
-23.1732
 11
-16.4594
 21
-23.1502
  0
LINE
  8
0
 10
-16.4594
 20
-23.1502
 11
-16.1453
 21
-23.1469
  0
LINE
  8
0
 10
-16.1453
 20
-23.1469
 11
-15.8316
 21
-23.1634
  0
LINE
  8
0
 10
-15.8316
 20
-23.1634
 11
-15.5196
 21
-23.1995
  0
LINE
  8
0
 10
-15.5196
 20
-23.1995
 11
-15.2104
 21
-23.2551
  0
LINE
  8
0
 10
-15.2104
 20
-23.2551
 11
-14.9054
 21
-23.33
  0
LINE
  8
0
 10
-14.9054
 20
-23.33
 11
-14.6057
 21
-23.4239
  0
LINE
  8
0
 10
-14.6057
 20
-23.4239
 11
-14.3124
 21
-23.5365
  0
LINE
  8
0
 10
-14.3124
 20
-23.5365
 11
-14.0268
 21
-23.6673
  0
LINE
  8
0
 10
-14.0268
 20
-23.6673
 11
-13.761
 21
-23.8098
  0
LINE
  8
0
 10
-13.761
 20
-23.8098
 11
-16.2546
 21
-28.1287
  0
LINE
  8
0
 10
-16.2546
 20
-28.1287
 11
-20.5735
 21
-25.6352
  0
LINE
  8
0
 10
-16.2329
 20
-28.1413
 11
-13.7394
 21
-23.8223
  0
LINE
  8
0
 10
-13.7394
 20
-23.8223
 11
-13.483
 21
-23.9812
  0
LINE
  8
0
 10
-13.483
 20
-23.9812
 11
-13.227
 21
-24.1632
  0
LINE
  8
0
 10
-13.227
 20
-24.1632
 11
-12.9829
 21
-24.3608
  0
LINE
  8
0
 10
-12.9829
 20
-24.3608
 11
-12.7517
 21
-24.5735
  0
LINE
  8
0
 10
-12.7517
 20
-24.5735
 11
-12.5343
 21
-24.8002
  0
LINE
  8
0
 10
-12.5343
 20
-24.8002
 11
-12.3315
 21
-25.0401
  0
LINE
  8
0
 10
-12.3315
 20
-25.0401
 11
-12.1442
 21
-25.2923
  0
LINE
  8
0
 10
-12.1442
 20
-25.2923
 11
-11.9732
 21
-25.5557
  0
LINE
  8
0
 10
-11.9732
 20
-25.5557
 11
-11.819
 21
-25.8293
  0
LINE
  8
0
 10
-11.819
 20
-25.8293
 11
-11.6823
 21
-26.1121
  0
LINE
  8
0
 10
-11.6823
 20
-26.1121
 11
-11.5636
 21
-26.403
  0
LINE
  8
0
 10
-11.5636
 20
-26.403
 11
-11.4634
 21
-26.7007
  0
LINE
  8
0
 10
-11.4634
 20
-26.7007
 11
-11.3821
 21
-27.0041
  0
LINE
  8
0
 10
-11.3821
 20
-27.0041
 11
-11.32
 21
-27.312
  0
LINE
  8
0
 10
-11.32
 20
-27.312
 11
-11.2774
 21
-27.6232
  0
LINE
  8
0
 10
-11.2774
 20
-27.6232
 11
-11.2544
 21
-27.9364
  0
LINE
  8
0
 10
-11.2544
 20
-27.9364
 11
-11.2511
 21
-28.2505
  0
LINE
  8
0
 10
-11.2511
 20
-28.2505
 11
-11.2675
 21
-28.5642
  0
LINE
  8
0
 10
-11.2675
 20
-28.5642
 11
-11.3036
 21
-28.8762
  0
LINE
  8
0
 10
-11.3036
 20
-28.8762
 11
-11.3593
 21
-29.1854
  0
LINE
  8
0
 10
-11.3593
 20
-29.1854
 11
-11.4342
 21
-29.4904
  0
LINE
  8
0
 10
-11.4342
 20
-29.4904
 11
-11.5281
 21
-29.7901
  0
LINE
  8
0
 10
-11.5281
 20
-29.7901
 11
-11.6407
 21
-30.0834
  0
LINE
  8
0
 10
-11.6407
 20
-30.0834
 11
-11.7714
 21
-30.369
  0
LINE
  8
0
 10
-11.7714
 20
-30.369
 11
-11.914
 21
-30.6348
  0
LINE
  8
0
 10
-11.914
 20
-30.6348
 11
-16.2329
 21
-28.1413
  0
LINE
  8
0
 10
-19.017
 20
-32.3104
 11
-19.273
 21
-32.1285
  0
LINE
  8
0
 10
-19.273
 20
-32.1285
 11
-19.5171
 21
-31.9308
  0
LINE
  8
0
 10
-19.5171
 20
-31.9308
 11
-19.7483
 21
-31.7182
  0
LINE
  8
0
 10
-19.7483
 20
-31.7182
 11
-19.9657
 21
-31.4915
  0
LINE
  8
0
 10
-19.9657
 20
-31.4915
 11
-20.1685
 21
-31.2516
  0
LINE
  8
0
 10
-20.1685
 20
-31.2516
 11
-20.3557
 21
-30.9994
  0
LINE
  8
0
 10
-20.3557
 20
-30.9994
 11
-20.5268
 21
-30.7359
  0
LINE
  8
0
 10
-20.5268
 20
-30.7359
 11
-20.681
 21
-30.4623
  0
LINE
  8
0
 10
-20.681
 20
-30.4623
 11
-20.8177
 21
-30.1795
  0
LINE
  8
0
 10
-20.8177
 20
-30.1795
 11
-20.9364
 21
-29.8887
  0
LINE
  8
0
 10
-20.9364
 20
-29.8887
 11
-21.0366
 21
-29.591
  0
LINE
  8
0
 10
-21.0366
 20
-29.591
 11
-21.1179
 21
-29.2876
  0
LINE
  8
0
 10
-21.1179
 20
-29.2876
 11
-21.18
 21
-28.9797
  0
LINE
  8
0
 10
-21.18
 20
-28.9797
 11
-21.2226
 21
-28.6685
  0
LINE
  8
0
 10
-21.2226
 20
-28.6685
 11
-21.2456
 21
-28.3552
  0
LINE
  8
0
 10
-21.2456
 20
-28.3552
 11
-21.2489
 21
-28.0411
  0
LINE
  8
0
 10
-21.2489
 20
-28.0411
 11
-21.2325
 21
-27.7274
  0
LINE
  8
0
 10
-21.2325
 20
-27.7274
 11
-21.1964
 21
-27.4154
  0
LINE
  8
0
 10
-21.1964
 20
-27.4154
 11
-21.1407
 21
-27.1063
  0
LINE
  8
0
 10
-21.1407
 20
-27.1063
 11
-21.0658
 21
-26.8012
  0
LINE
  8
0
 10
-21.0658
 20
-26.8012
 11
-20.9719
 21
-26.5015
  0
LINE
  8
0
 10
-20.9719
 20
-26.5015
 11
-20.8593
 21
-26.2082
  0
LINE
  8
0
 10
-20.8593
 20
-26.2082
 11
-20.7285
 21
-25.9226
  0
LINE
  8
0
 10
-20.7285
 20
-25.9226
 11
-20.586
 21
-25.6568
  0
LINE
  8
0
 10
-20.586
 20
-25.6568
 11
-16.2671
 21
-28.1504
  0
LINE
  8
0
 10
-16.2671
 20
-28.1504
 11
-18.7606
 21
-32.4694
  0
LINE
  8
0
 10
-18.7606
 20
-32.4694
 11
-19.017
 21
-32.3104
  0
LINE
  8
0
 10
-16.6684
 20
-33.1283
 11
-16.9804
 21
-33.0922
  0
LINE
  8
0
 10
-16.9804
 20
-33.0922
 11
-17.2896
 21
-33.0366
  0
LINE
  8
0
 10
-17.2896
 20
-33.0366
 11
-17.5946
 21
-32.9616
  0
LINE
  8
0
 10
-17.5946
 20
-32.9616
 11
-17.8943
 21
-32.8677
  0
LINE
  8
0
 10
-17.8943
 20
-32.8677
 11
-18.1876
 21
-32.7551
  0
LINE
  8
0
 10
-18.1876
 20
-32.7551
 11
-18.4732
 21
-32.6244
  0
LINE
  8
0
 10
-18.4732
 20
-32.6244
 11
-18.739
 21
-32.4819
  0
LINE
  8
0
 10
-18.739
 20
-32.4819
 11
-16.2454
 21
-28.1629
  0
LINE
  8
0
 10
-16.2454
 20
-28.1629
 11
-11.9265
 21
-30.6564
  0
LINE
  8
0
 10
-11.9265
 20
-30.6564
 11
-12.0854
 21
-30.9128
  0
LINE
  8
0
 10
-12.0854
 20
-30.9128
 11
-12.2673
 21
-31.1688
  0
LINE
  8
0
 10
-12.2673
 20
-31.1688
 11
-12.465
 21
-31.4129
  0
LINE
  8
0
 10
-12.465
 20
-31.4129
 11
-12.6776
 21
-31.6441
  0
LINE
  8
0
 10
-12.6776
 20
-31.6441
 11
-12.9043
 21
-31.8615
  0
LINE
  8
0
 10
-12.9043
 20
-31.8615
 11
-13.1443
 21
-32.0643
  0
LINE
  8
0
 10
-13.1443
 20
-32.0643
 11
-13.3964
 21
-32.2516
  0
LINE
  8
0
 10
-13.3964
 20
-32.2516
 11
-13.6599
 21
-32.4226
  0
LINE
  8
0
 10
-13.6599
 20
-32.4226
 11
-13.9335
 21
-32.5768
  0
LINE
  8
0
 10
-13.9335
 20
-32.5768
 11
-14.2163
 21
-32.7135
  0
LINE
  8
0
 10
-14.2163
 20
-32.7135
 11
-14.5071
 21
-32.8322
  0
LINE
  8
0
 10
-14.5071
 20
-32.8322
 11
-14.8048
 21
-32.9324
  0
LINE
  8
0
 10
-14.8048
 20
-32.9324
 11
-15.1082
 21
-33.0137
  0
LINE
  8
0
 10
-15.1082
 20
-33.0137
 11
-15.4162
 21
-33.0758
  0
LINE
  8
0
 10
-15.4162
 20
-33.0758
 11
-15.7274
 21
-33.1184
  0
LINE
  8
0
 10
-15.7274
 20
-33.1184
 11
-16.0406
 21
-33.1414
  0
LINE
  8
0
 10
-16.0406
 20
-33.1414
 11
-16.3547
 21
-33.1447
  0
LINE
  8
0
 10
-16.3547
 20
-33.1447
 11
-16.6684
 21
-33.1283
  0
LINE
  8
0
 10
-3.9921
 20
-57.2488
 11
-3.96844
 21
-56.9987
  0
LINE
  8
0
 10
-3.96844
 20
-56.9987
 11
-3.92914
 21
-56.7505
  0
LINE
  8
0
 10
-3.92914
 20
-56.7505
 11
-3.87433
 21
-56.5052
  0
LINE
  8
0
 10
-3.87433
 20
-56.5052
 11
-3.80421
 21
-56.2639
  0
LINE
  8
0
 10
-3.80421
 20
-56.2639
 11
-3.7191
 21
-56.0275
  0
LINE
  8
0
 10
-3.7191
 20
-56.0275
 11
-3.61929
 21
-55.7969
  0
LINE
  8
0
 10
-3.61929
 20
-55.7969
 11
-3.50522
 21
-55.573
  0
LINE
  8
0
 10
-3.50522
 20
-55.573
 11
-3.3773
 21
-55.3567
  0
LINE
  8
0
 10
-3.3773
 20
-55.3567
 11
-3.23605
 21
-55.1488
  0
LINE
  8
0
 10
-3.23605
 20
-55.1488
 11
-3.08205
 21
-54.9503
  0
LINE
  8
0
 10
-3.08205
 20
-54.9503
 11
-2.91586
 21
-54.7618
  0
LINE
  8
0
 10
-2.91586
 20
-54.7618
 11
-2.73817
 21
-54.5841
  0
LINE
  8
0
 10
-2.73817
 20
-54.5841
 11
-2.54968
 21
-54.4179
  0
LINE
  8
0
 10
-2.54968
 20
-54.4179
 11
-2.35114
 21
-54.2639
  0
LINE
  8
0
 10
-2.35114
 20
-54.2639
 11
-2.1433
 21
-54.1227
  0
LINE
  8
0
 10
-2.1433
 20
-54.1227
 11
-1.927
 21
-53.9948
  0
LINE
  8
0
 10
-1.927
 20
-53.9948
 11
-1.70311
 21
-53.8807
  0
LINE
  8
0
 10
-1.70311
 20
-53.8807
 11
-1.47249
 21
-53.7809
  0
LINE
  8
0
 10
-1.47249
 20
-53.7809
 11
-1.23605
 21
-53.6958
  0
LINE
  8
0
 10
-1.23605
 20
-53.6958
 11
-0.994751
 21
-53.6257
  0
LINE
  8
0
 10
-0.994751
 20
-53.6257
 11
-0.749512
 21
-53.5708
  0
LINE
  8
0
 10
-0.749512
 20
-53.5708
 11
-0.501328
 21
-53.5315
  0
LINE
  8
0
 10
-0.501328
 20
-53.5315
 11
-0.25116
 21
-53.5079
  0
LINE
  8
0
 10
-0.25116
 20
-53.5079
 11
-0.0124969
 21
-53.5004
  0
LINE
  8
0
 10
-0.0124969
 20
-53.5004
 11
-0.0124969
 21
-57.4875
  0
LINE
  8
0
 10
-0.0124969
 20
-57.4875
 11
-3.9996
 21
-57.4875
  0
LINE
  8
0
 10
-3.9996
 20
-57.4875
 11
-3.9921
 21
-57.2488
  0
LINE
  8
0
 10
0.0124969
 20
-57.4875
 11
0.0124969
 21
-53.5004
  0
LINE
  8
0
 10
0.0124969
 20
-53.5004
 11
0.25116
 21
-53.5079
  0
LINE
  8
0
 10
0.25116
 20
-53.5079
 11
0.501328
 21
-53.5315
  0
LINE
  8
0
 10
0.501328
 20
-53.5315
 11
0.749512
 21
-53.5708
  0
LINE
  8
0
 10
0.749512
 20
-53.5708
 11
0.994751
 21
-53.6257
  0
LINE
  8
0
 10
0.994751
 20
-53.6257
 11
1.23605
 21
-53.6958
  0
LINE
  8
0
 10
1.23605
 20
-53.6958
 11
1.47249
 21
-53.7809
  0
LINE
  8
0
 10
1.47249
 20
-53.7809
 11
1.70311
 21
-53.8807
  0
LINE
  8
0
 10
1.70311
 20
-53.8807
 11
1.927
 21
-53.9948
  0
LINE
  8
0
 10
1.927
 20
-53.9948
 11
2.1433
 21
-54.1227
  0
LINE
  8
0
 10
2.1433
 20
-54.1227
 11
2.35114
 21
-54.2639
  0
LINE
  8
0
 10
2.35114
 20
-54.2639
 11
2.54968
 21
-54.4179
  0
LINE
  8
0
 10
2.54968
 20
-54.4179
 11
2.73817
 21
-54.5841
  0
LINE
  8
0
 10
2.73817
 20
-54.5841
 11
2.91586
 21
-54.7618
  0
LINE
  8
0
 10
2.91586
 20
-54.7618
 11
3.08205
 21
-54.9503
  0
LINE
  8
0
 10
3.08205
 20
-54.9503
 11
3.23605
 21
-55.1488
  0
LINE
  8
0
 10
3.23605
 20
-55.1488
 11
3.3773
 21
-55.3567
  0
LINE
  8
0
 10
3.3773
 20
-55.3567
 11
3.50522
 21
-55.573
  0
LINE
  8
0
 10
3.50522
 20
-55.573
 11
3.61929
 21
-55.7969
  0
LINE
  8
0
 10
3.61929
 20
-55.7969
 11
3.7191
 21
-56.0275
  0
LINE
  8
0
 10
3.7191
 20
-56.0275
 11
3.80421
 21
-56.2639
  0
LINE
  8
0
 10
3.80421
 20
-56.2639
 11
3.87433
 21
-56.5052
  0
LINE
  8
0
 10
3.87433
 20
-56.5052
 11
3.92914
 21
-56.7505
  0
LINE
  8
0
 10
3.92914
 20
-56.7505
 11
3.96844
 21
-56.9987
  0
LINE
  8
0
 10
3.96844
 20
-56.9987
 11
3.9921
 21
-57.2488
  0
LINE
  8
0
 10
3.9921
 20
-57.2488
 11
3.9996
 21
-57.4875
  0
LINE
  8
0
 10
3.9996
 20
-57.4875
 11
0.0124969
 21
-57.4875
  0
LINE
  8
0
 10
0.0124969
 20
-61.4996
 11
0.0124969
 21
-57.5125
  0
LINE
  8
0
 10
0.0124969
 20
-57.5125
 11
3.9996
 21
-57.5125
  0
LINE
  8
0
 10
3.9996
 20
-57.5125
 11
3.9921
 21
-57.7512
  0
LINE
  8
0
 10
3.9921
 20
-57.7512
 11
3.96844
 21
-58.0013
  0
LINE
  8
0
 10
3.96844
 20
-58.0013
 11
3.92914
 21
-58.2495
  0
LINE
  8
0
 10
3.92914
 20
-58.2495
 11
3.87433
 21
-58.4948
  0
LINE
  8
0
 10
3.87433
 20
-58.4948
 11
3.80421
 21
-58.7361
  0
LINE
  8
0
 10
3.80421
 20
-58.7361
 11
3.7191
 21
-58.9725
  0
LINE
  8
0
 10
3.7191
 20
-58.9725
 11
3.61929
 21
-59.2031
  0
LINE
  8
0
 10
3.61929
 20
-59.2031
 11
3.50522
 21
-59.427
  0
LINE
  8
0
 10
3.50522
 20
-59.427
 11
3.3773
 21
-59.6433
  0
LINE
  8
0
 10
3.3773
 20
-59.6433
 11
3.23605
 21
-59.8511
  0
LINE
  8
0
 10
3.23605
 20
-59.8511
 11
3.08205
 21
-60.0497
  0
LINE
  8
0
 10
3.08205
 20
-60.0497
 11
2.91586
 21
-60.2382
  0
LINE
  8
0
 10
2.91586
 20
-60.2382
 11
2.73817
 21
-60.4159
  0
LINE
  8
0
 10
2.73817
 20
-60.4159
 11
2.54968
 21
-60.582
  0
LINE
  8
0
 10
2.54968
 20
-60.582
 11
2.35114
 21
-60.7361
  0
LINE
  8
0
 10
2.35114
 20
-60.7361
 11
2.1433
 21
-60.8773
  0
LINE
  8
0
 10
2.1433
 20
-60.8773
 11
1.927
 21
-61.0052
  0
LINE
  8
0
 10
1.927
 20
-61.0052
 11
1.70311
 21
-61.1193
  0
LINE
  8
0
 10
1.70311
 20
-61.1193
 11
1.47249
 21
-61.2191
  0
LINE
  8
0
 10
1.47249
 20
-61.2191
 11
1.23605
 21
-61.3042
  0
LINE
  8
0
 10
1.23605
 20
-61.3042
 11
0.994751
 21
-61.3743
  0
LINE
  8
0
 10
0.994751
 20
-61.3743
 11
0.749512
 21
-61.4291
  0
LINE
  8
0
 10
0.749512
 20
-61.4291
 11
0.501328
 21
-61.4685
  0
LINE
  8
0
 10
0.501328
 20
-61.4685
 11
0.25116
 21
-61.4921
  0
LINE
  8
0
 10
0.25116
 20
-61.4921
 11
0.0124969
 21
-61.4996
  0
LINE
  8
0
 10
-0.25116
 20
-61.4921
 11
-0.501328
 21
-61.4685
  0
LINE
  8
0
 10
-0.501328
 20
-61.4685
 11
-0.749512
 21
-61.4291
  0
LINE
  8
0
 10
-0.749512
 20
-61.4291
 11
-0.994751
 21
-61.3743
  0
LINE
  8
0
 10
-0.994751
 20
-61.3743
 11
-1.23605
 21
-61.3042
  0
LINE
  8
0
 10
-1.23605
 20
-61.3042
 11
-1.47249
 21
-61.2191
  0
LINE
  8
0
 10
-1.47249
 20
-61.2191
 11
-1.70311
 21
-61.1193
  0
LINE
  8
0
 10
-1.70311
 20
-61.1193
 11
-1.927
 21
-61.0052
  0
LINE
  8
0
 10
-1.927
 20
-61.0052
 11
-2.1433
 21
-60.8773
  0
LINE
  8
0
 10
-2.1433
 20
-60.8773
 11
-2.35114
 21
-60.7361
  0
LINE
  8
0
 10
-2.35114
 20
-60.7361
 11
-2.54968
 21
-60.582
  0
LINE
  8
0
 10
-2.54968
 20
-60.582
 11
-2.73817
 21
-60.4159
  0
LINE
  8
0
 10
-2.73817
 20
-60.4159
 11
-2.91586
 21
-60.2382
  0
LINE
  8
0
 10
-2.91586
 20
-60.2382
 11
-3.08205
 21
-60.0497
  0
LINE
  8
0
 10
-3.08205
 20
-60.0497
 11
-3.23605
 21
-59.8511
  0
LINE
  8
0
 10
-3.23605
 20
-59.8511
 11
-3.3773
 21
-59.6433
  0
LINE
  8
0
 10
-3.3773
 20
-59.6433
 11
-3.50522
 21
-59.427
  0
LINE
  8
0
 10
-3.50522
 20
-59.427
 11
-3.61929
 21
-59.2031
  0
LINE
  8
0
 10
-3.61929
 20
-59.2031
 11
-3.7191
 21
-58.9725
  0
LINE
  8
0
 10
-3.7191
 20
-58.9725
 11
-3.80421
 21
-58.7361
  0
LINE
  8
0
 10
-3.80421
 20
-58.7361
 11
-3.87433
 21
-58.4948
  0
LINE
  8
0
 10
-3.87433
 20
-58.4948
 11
-3.92914
 21
-58.2495
  0
LINE
  8
0
 10
-3.92914
 20
-58.2495
 11
-3.96844
 21
-58.0013
  0
LINE
  8
0
 10
-3.96844
 20
-58.0013
 11
-3.9921
 21
-57.7512
  0
LINE
  8
0
 10
-3.9921
 20
-57.7512
 11
-3.9996
 21
-57.5125
  0
LINE
  8
0
 10
-3.9996
 20
-57.5125
 11
-0.0124969
 21
-57.5125
  0
LINE
  8
0
 10
-0.0124969
 20
-57.5125
 11
-0.0124969
 21
-61.4996
  0
LINE
  8
0
 10
-0.0124969
 20
-61.4996
 11
-0.25116
 21
-61.4921
  0
ENDSEC
  0
SECTION
  2
OBJECTS
  0
DICTIONARY
  0
ENDSEC
  0
EOF
