  0
SECTION
  2
BLOCKS
  0
ENDSEC
  0
SECTION
  2
ENTITIES
  0
LINE
  8
0
 10
160
 20
162.6
 11
110
 21
162.6
  0
LINE
  8
0
 10
110
 20
162.6
 11
110
 21
0
  0
LINE
  8
0
 10
110
 20
0
 11
160
 21
0
  0
LINE
  8
0
 10
160
 20
0
 11
160
 21
162.6
  0
LINE
  8
0
 10
220
 20
162.6
 11
170
 21
162.6
  0
LINE
  8
0
 10
170
 20
162.6
 11
170
 21
0
  0
LINE
  8
0
 10
170
 20
0
 11
220
 21
0
  0
LINE
  8
0
 10
220
 20
0
 11
220
 21
162.6
  0
LINE
  8
0
 10
280
 20
162.6
 11
230
 21
162.6
  0
LINE
  8
0
 10
230
 20
162.6
 11
230
 21
0
  0
LINE
  8
0
 10
230
 20
0
 11
280
 21
0
  0
LINE
  8
0
 10
280
 20
0
 11
280
 21
162.6
  0
LINE
  8
0
 10
340
 20
162.6
 11
290
 21
162.6
  0
LINE
  8
0
 10
290
 20
162.6
 11
290
 21
0
  0
LINE
  8
0
 10
290
 20
0
 11
340
 21
0
  0
LINE
  8
0
 10
340
 20
0
 11
340
 21
162.6
  0
LINE
  8
0
 10
34.4554
 20
-106.043
 11
55.75
 21
-96.5618
  0
LINE
  8
0
 10
55.75
 20
-96.5618
 11
74.608
 21
-82.8606
  0
LINE
  8
0
 10
74.608
 20
-82.8606
 11
90.2054
 21
-65.5381
  0
LINE
  8
0
 10
90.2054
 20
-65.5381
 11
101.86
 21
-45.3511
  0
LINE
  8
0
 10
101.86
 20
-45.3511
 11
102
 21
-44.9212
  0
LINE
  8
0
 10
102
 20
-44.9212
 11
102
 21
44.9212
  0
LINE
  8
0
 10
102
 20
44.9212
 11
101.86
 21
45.3511
  0
LINE
  8
0
 10
101.86
 20
45.3511
 11
90.2054
 21
65.5381
  0
LINE
  8
0
 10
90.2054
 20
65.5381
 11
74.608
 21
82.8606
  0
LINE
  8
0
 10
74.608
 20
82.8606
 11
56
 21
96.3802
  0
LINE
  8
0
 10
56
 20
96.3802
 11
56
 21
148.5
  0
LINE
  8
0
 10
56
 20
148.5
 11
-56
 21
148.5
  0
LINE
  8
0
 10
-56
 20
148.5
 11
-56
 21
96.3802
  0
LINE
  8
0
 10
-56
 20
96.3802
 11
-74.608
 21
82.8606
  0
LINE
  8
0
 10
-74.608
 20
82.8606
 11
-90.2054
 21
65.5381
  0
LINE
  8
0
 10
-90.2054
 20
65.5381
 11
-101.86
 21
45.3511
  0
LINE
  8
0
 10
-101.86
 20
45.3511
 11
-102
 21
44.9212
  0
LINE
  8
0
 10
-102
 20
44.9212
 11
-102
 21
-44.9212
  0
LINE
  8
0
 10
-102
 20
-44.9212
 11
-101.86
 21
-45.3511
  0
LINE
  8
0
 10
-101.86
 20
-45.3511
 11
-90.2054
 21
-65.5381
  0
LINE
  8
0
 10
-90.2054
 20
-65.5381
 11
-74.608
 21
-82.8606
  0
LINE
  8
0
 10
-74.608
 20
-82.8606
 11
-55.75
 21
-96.5618
  0
LINE
  8
0
 10
-55.75
 20
-96.5618
 11
-34.4554
 21
-106.043
  0
LINE
  8
0
 10
-34.4554
 20
-106.043
 11
-11.6549
 21
-110.889
  0
LINE
  8
0
 10
-11.6549
 20
-110.889
 11
11.6549
 21
-110.889
  0
LINE
  8
0
 10
11.6549
 20
-110.889
 11
34.4554
 21
-106.043
  0
LINE
  8
0
 10
-0.209045
 20
72.6109
 11
-0.618027
 21
72.6979
  0
LINE
  8
0
 10
-0.618027
 20
72.6979
 11
-1
 21
72.8679
  0
LINE
  8
0
 10
-1
 20
72.8679
 11
-1.33826
 21
73.1137
  0
LINE
  8
0
 10
-1.33826
 20
73.1137
 11
-1.61803
 21
73.4244
  0
LINE
  8
0
 10
-1.61803
 20
73.4244
 11
-1.82709
 21
73.7865
  0
LINE
  8
0
 10
-1.82709
 20
73.7865
 11
-1.95628
 21
74.1842
  0
LINE
  8
0
 10
-1.95628
 20
74.1842
 11
-2
 21
74.6
  0
LINE
  8
0
 10
-2
 20
74.6
 11
-1.95628
 21
75.0158
  0
LINE
  8
0
 10
-1.95628
 20
75.0158
 11
-1.82709
 21
75.4135
  0
LINE
  8
0
 10
-1.82709
 20
75.4135
 11
-1.61803
 21
75.7756
  0
LINE
  8
0
 10
-1.61803
 20
75.7756
 11
-1.33826
 21
76.0863
  0
LINE
  8
0
 10
-1.33826
 20
76.0863
 11
-0.999985
 21
76.332
  0
LINE
  8
0
 10
-0.999985
 20
76.332
 11
-0.618027
 21
76.5021
  0
LINE
  8
0
 10
-0.618027
 20
76.5021
 11
-0.209045
 21
76.589
  0
LINE
  8
0
 10
-0.209045
 20
76.589
 11
0.209045
 21
76.589
  0
LINE
  8
0
 10
0.209045
 20
76.589
 11
0.618027
 21
76.5021
  0
LINE
  8
0
 10
0.618027
 20
76.5021
 11
1
 21
76.332
  0
LINE
  8
0
 10
1
 20
76.332
 11
1.33826
 21
76.0863
  0
LINE
  8
0
 10
1.33826
 20
76.0863
 11
1.61803
 21
75.7756
  0
LINE
  8
0
 10
1.61803
 20
75.7756
 11
1.82709
 21
75.4135
  0
LINE
  8
0
 10
1.82709
 20
75.4135
 11
1.95628
 21
75.0158
  0
LINE
  8
0
 10
1.95628
 20
75.0158
 11
2
 21
74.6
  0
LINE
  8
0
 10
2
 20
74.6
 11
1.95628
 21
74.1842
  0
LINE
  8
0
 10
1.95628
 20
74.1842
 11
1.82709
 21
73.7865
  0
LINE
  8
0
 10
1.82709
 20
73.7865
 11
1.61803
 21
73.4244
  0
LINE
  8
0
 10
1.61803
 20
73.4244
 11
1.33826
 21
73.1137
  0
LINE
  8
0
 10
1.33826
 20
73.1137
 11
1
 21
72.8679
  0
LINE
  8
0
 10
1
 20
72.8679
 11
0.618027
 21
72.6979
  0
LINE
  8
0
 10
0.618027
 20
72.6979
 11
0.209045
 21
72.6109
  0
LINE
  8
0
 10
0.209045
 20
72.6109
 11
-0.209045
 21
72.6109
  0
LINE
  8
0
 10
-0.209045
 20
-1.98903
 11
-0.618027
 21
-1.9021
  0
LINE
  8
0
 10
-0.618027
 20
-1.9021
 11
-1
 21
-1.73204
  0
LINE
  8
0
 10
-1
 20
-1.73204
 11
-1.33826
 21
-1.48628
  0
LINE
  8
0
 10
-1.33826
 20
-1.48628
 11
-1.61803
 21
-1.17557
  0
LINE
  8
0
 10
-1.61803
 20
-1.17557
 11
-1.82709
 21
-0.813461
  0
LINE
  8
0
 10
-1.82709
 20
-0.813461
 11
-1.95628
 21
-0.415817
  0
LINE
  8
0
 10
-1.95628
 20
-0.415817
 11
-2
 21
0
  0
LINE
  8
0
 10
-2
 20
0
 11
-1.95628
 21
0.415817
  0
LINE
  8
0
 10
-1.95628
 20
0.415817
 11
-1.82709
 21
0.813461
  0
LINE
  8
0
 10
-1.82709
 20
0.813461
 11
-1.61803
 21
1.17557
  0
LINE
  8
0
 10
-1.61803
 20
1.17557
 11
-1.33826
 21
1.48628
  0
LINE
  8
0
 10
-1.33826
 20
1.48628
 11
-0.999985
 21
1.73204
  0
LINE
  8
0
 10
-0.999985
 20
1.73204
 11
-0.618027
 21
1.9021
  0
LINE
  8
0
 10
-0.618027
 20
1.9021
 11
-0.209045
 21
1.98903
  0
LINE
  8
0
 10
-0.209045
 20
1.98903
 11
0.209045
 21
1.98903
  0
LINE
  8
0
 10
0.209045
 20
1.98903
 11
0.618027
 21
1.9021
  0
LINE
  8
0
 10
0.618027
 20
1.9021
 11
1
 21
1.73204
  0
LINE
  8
0
 10
1
 20
1.73204
 11
1.33826
 21
1.48628
  0
LINE
  8
0
 10
1.33826
 20
1.48628
 11
1.61803
 21
1.17557
  0
LINE
  8
0
 10
1.61803
 20
1.17557
 11
1.82709
 21
0.813461
  0
LINE
  8
0
 10
1.82709
 20
0.813461
 11
1.95628
 21
0.415817
  0
LINE
  8
0
 10
1.95628
 20
0.415817
 11
2
 21
0
  0
LINE
  8
0
 10
2
 20
0
 11
1.95628
 21
-0.415817
  0
LINE
  8
0
 10
1.95628
 20
-0.415817
 11
1.82709
 21
-0.813461
  0
LINE
  8
0
 10
1.82709
 20
-0.813461
 11
1.61803
 21
-1.17557
  0
LINE
  8
0
 10
1.61803
 20
-1.17557
 11
1.33826
 21
-1.48628
  0
LINE
  8
0
 10
1.33826
 20
-1.48628
 11
1
 21
-1.73204
  0
LINE
  8
0
 10
1
 20
-1.73204
 11
0.618027
 21
-1.9021
  0
LINE
  8
0
 10
0.618027
 20
-1.9021
 11
0.209045
 21
-1.98903
  0
LINE
  8
0
 10
0.209045
 20
-1.98903
 11
-0.209045
 21
-1.98903
  0
LINE
  8
0
 10
74.3909
 20
-1.98903
 11
73.982
 21
-1.9021
  0
LINE
  8
0
 10
73.982
 20
-1.9021
 11
73.6
 21
-1.73204
  0
LINE
  8
0
 10
73.6
 20
-1.73204
 11
73.2617
 21
-1.48628
  0
LINE
  8
0
 10
73.2617
 20
-1.48628
 11
72.982
 21
-1.17557
  0
LINE
  8
0
 10
72.982
 20
-1.17557
 11
72.7729
 21
-0.813461
  0
LINE
  8
0
 10
72.7729
 20
-0.813461
 11
72.6437
 21
-0.415817
  0
LINE
  8
0
 10
72.6437
 20
-0.415817
 11
72.6
 21
0
  0
LINE
  8
0
 10
72.6
 20
0
 11
72.6437
 21
0.415817
  0
LINE
  8
0
 10
72.6437
 20
0.415817
 11
72.7729
 21
0.813461
  0
LINE
  8
0
 10
72.7729
 20
0.813461
 11
72.982
 21
1.17557
  0
LINE
  8
0
 10
72.982
 20
1.17557
 11
73.2617
 21
1.48628
  0
LINE
  8
0
 10
73.2617
 20
1.48628
 11
73.6
 21
1.73204
  0
LINE
  8
0
 10
73.6
 20
1.73204
 11
73.982
 21
1.9021
  0
LINE
  8
0
 10
73.982
 20
1.9021
 11
74.3909
 21
1.98903
  0
LINE
  8
0
 10
74.3909
 20
1.98903
 11
74.8091
 21
1.98903
  0
LINE
  8
0
 10
74.8091
 20
1.98903
 11
75.218
 21
1.9021
  0
LINE
  8
0
 10
75.218
 20
1.9021
 11
75.6
 21
1.73204
  0
LINE
  8
0
 10
75.6
 20
1.73204
 11
75.9382
 21
1.48628
  0
LINE
  8
0
 10
75.9382
 20
1.48628
 11
76.218
 21
1.17557
  0
LINE
  8
0
 10
76.218
 20
1.17557
 11
76.4271
 21
0.813461
  0
LINE
  8
0
 10
76.4271
 20
0.813461
 11
76.5563
 21
0.415817
  0
LINE
  8
0
 10
76.5563
 20
0.415817
 11
76.6
 21
0
  0
LINE
  8
0
 10
76.6
 20
0
 11
76.5563
 21
-0.415817
  0
LINE
  8
0
 10
76.5563
 20
-0.415817
 11
76.4271
 21
-0.813461
  0
LINE
  8
0
 10
76.4271
 20
-0.813461
 11
76.218
 21
-1.17557
  0
LINE
  8
0
 10
76.218
 20
-1.17557
 11
75.9382
 21
-1.48628
  0
LINE
  8
0
 10
75.9382
 20
-1.48628
 11
75.6
 21
-1.73204
  0
LINE
  8
0
 10
75.6
 20
-1.73204
 11
75.218
 21
-1.9021
  0
LINE
  8
0
 10
75.218
 20
-1.9021
 11
74.8091
 21
-1.98903
  0
LINE
  8
0
 10
74.8091
 20
-1.98903
 11
74.3909
 21
-1.98903
  0
LINE
  8
0
 10
-74.8091
 20
-1.98903
 11
-75.218
 21
-1.9021
  0
LINE
  8
0
 10
-75.218
 20
-1.9021
 11
-75.6
 21
-1.73204
  0
LINE
  8
0
 10
-75.6
 20
-1.73204
 11
-75.9382
 21
-1.48628
  0
LINE
  8
0
 10
-75.9382
 20
-1.48628
 11
-76.218
 21
-1.17557
  0
LINE
  8
0
 10
-76.218
 20
-1.17557
 11
-76.4271
 21
-0.813461
  0
LINE
  8
0
 10
-76.4271
 20
-0.813461
 11
-76.5563
 21
-0.415817
  0
LINE
  8
0
 10
-76.5563
 20
-0.415817
 11
-76.6
 21
0
  0
LINE
  8
0
 10
-76.6
 20
0
 11
-76.5563
 21
0.415817
  0
LINE
  8
0
 10
-76.5563
 20
0.415817
 11
-76.4271
 21
0.813461
  0
LINE
  8
0
 10
-76.4271
 20
0.813461
 11
-76.218
 21
1.17557
  0
LINE
  8
0
 10
-76.218
 20
1.17557
 11
-75.9382
 21
1.48628
  0
LINE
  8
0
 10
-75.9382
 20
1.48628
 11
-75.6
 21
1.73204
  0
LINE
  8
0
 10
-75.6
 20
1.73204
 11
-75.218
 21
1.9021
  0
LINE
  8
0
 10
-75.218
 20
1.9021
 11
-74.8091
 21
1.98903
  0
LINE
  8
0
 10
-74.8091
 20
1.98903
 11
-74.3909
 21
1.98903
  0
LINE
  8
0
 10
-74.3909
 20
1.98903
 11
-73.982
 21
1.9021
  0
LINE
  8
0
 10
-73.982
 20
1.9021
 11
-73.6
 21
1.73204
  0
LINE
  8
0
 10
-73.6
 20
1.73204
 11
-73.2617
 21
1.48628
  0
LINE
  8
0
 10
-73.2617
 20
1.48628
 11
-72.982
 21
1.17557
  0
LINE
  8
0
 10
-72.982
 20
1.17557
 11
-72.7729
 21
0.813461
  0
LINE
  8
0
 10
-72.7729
 20
0.813461
 11
-72.6437
 21
0.415817
  0
LINE
  8
0
 10
-72.6437
 20
0.415817
 11
-72.6
 21
0
  0
LINE
  8
0
 10
-72.6
 20
0
 11
-72.6437
 21
-0.415817
  0
LINE
  8
0
 10
-72.6437
 20
-0.415817
 11
-72.7729
 21
-0.813461
  0
LINE
  8
0
 10
-72.7729
 20
-0.813461
 11
-72.982
 21
-1.17557
  0
LINE
  8
0
 10
-72.982
 20
-1.17557
 11
-73.2617
 21
-1.48628
  0
LINE
  8
0
 10
-73.2617
 20
-1.48628
 11
-73.6
 21
-1.73204
  0
LINE
  8
0
 10
-73.6
 20
-1.73204
 11
-73.982
 21
-1.9021
  0
LINE
  8
0
 10
-73.982
 20
-1.9021
 11
-74.3909
 21
-1.98903
  0
LINE
  8
0
 10
-74.3909
 20
-1.98903
 11
-74.8091
 21
-1.98903
  0
LINE
  8
0
 10
-0.209045
 20
-76.589
 11
-0.618027
 21
-76.5021
  0
LINE
  8
0
 10
-0.618027
 20
-76.5021
 11
-1
 21
-76.332
  0
LINE
  8
0
 10
-1
 20
-76.332
 11
-1.33826
 21
-76.0863
  0
LINE
  8
0
 10
-1.33826
 20
-76.0863
 11
-1.61803
 21
-75.7756
  0
LINE
  8
0
 10
-1.61803
 20
-75.7756
 11
-1.82709
 21
-75.4135
  0
LINE
  8
0
 10
-1.82709
 20
-75.4135
 11
-1.95628
 21
-75.0158
  0
LINE
  8
0
 10
-1.95628
 20
-75.0158
 11
-2
 21
-74.6
  0
LINE
  8
0
 10
-2
 20
-74.6
 11
-1.95628
 21
-74.1842
  0
LINE
  8
0
 10
-1.95628
 20
-74.1842
 11
-1.82709
 21
-73.7865
  0
LINE
  8
0
 10
-1.82709
 20
-73.7865
 11
-1.61803
 21
-73.4244
  0
LINE
  8
0
 10
-1.61803
 20
-73.4244
 11
-1.33826
 21
-73.1137
  0
LINE
  8
0
 10
-1.33826
 20
-73.1137
 11
-0.999985
 21
-72.8679
  0
LINE
  8
0
 10
-0.999985
 20
-72.8679
 11
-0.618027
 21
-72.6979
  0
LINE
  8
0
 10
-0.618027
 20
-72.6979
 11
-0.209045
 21
-72.6109
  0
LINE
  8
0
 10
-0.209045
 20
-72.6109
 11
0.209045
 21
-72.6109
  0
LINE
  8
0
 10
0.209045
 20
-72.6109
 11
0.618027
 21
-72.6979
  0
LINE
  8
0
 10
0.618027
 20
-72.6979
 11
1
 21
-72.8679
  0
LINE
  8
0
 10
1
 20
-72.8679
 11
1.33826
 21
-73.1137
  0
LINE
  8
0
 10
1.33826
 20
-73.1137
 11
1.61803
 21
-73.4244
  0
LINE
  8
0
 10
1.61803
 20
-73.4244
 11
1.82709
 21
-73.7865
  0
LINE
  8
0
 10
1.82709
 20
-73.7865
 11
1.95628
 21
-74.1842
  0
LINE
  8
0
 10
1.95628
 20
-74.1842
 11
2
 21
-74.6
  0
LINE
  8
0
 10
2
 20
-74.6
 11
1.95628
 21
-75.0158
  0
LINE
  8
0
 10
1.95628
 20
-75.0158
 11
1.82709
 21
-75.4135
  0
LINE
  8
0
 10
1.82709
 20
-75.4135
 11
1.61803
 21
-75.7756
  0
LINE
  8
0
 10
1.61803
 20
-75.7756
 11
1.33826
 21
-76.0863
  0
LINE
  8
0
 10
1.33826
 20
-76.0863
 11
1
 21
-76.332
  0
LINE
  8
0
 10
1
 20
-76.332
 11
0.618027
 21
-76.5021
  0
LINE
  8
0
 10
0.618027
 20
-76.5021
 11
0.209045
 21
-76.589
  0
LINE
  8
0
 10
0.209045
 20
-76.589
 11
-0.209045
 21
-76.589
  0
ENDSEC
  0
SECTION
  2
OBJECTS
  0
DICTIONARY
  0
ENDSEC
  0
EOF
